<?xml version="1.0" encoding="UTF-8"?>
<svg version="1.1" xmlns="http://www.w3.org/2000/svg" width="1254" height="1254">
<path d="M0 0 C413.82 0 827.64 0 1254 0 C1254 413.82 1254 827.64 1254 1254 C840.18 1254 426.36 1254 0 1254 C0 840.18 0 426.36 0 0 Z " fill="#FDFDFD" transform="translate(0,0)"/>
<path d="M0 0 C6.81865889 1.66308753 13.6559206 3.16414653 20.53100586 4.57177734 C21.46268082 4.76311752 22.39435577 4.9544577 23.35426331 5.15159607 C27.14956678 5.92992825 30.94508637 6.70693124 34.74301147 7.47238159 C46.75473403 9.8970204 58.44263771 12.79168366 70.14819336 16.41162109 C73.51557611 17.39825369 76.89088233 18.35254155 80.27319336 19.28662109 C81.15644287 19.5307373 82.03969238 19.77485352 82.94970703 20.02636719 C88.64580354 21.56396973 94.36768107 22.93725834 100.12866211 24.20849609 C100.81710205 24.36081696 101.50554199 24.51313782 102.21484375 24.67007446 C105.623854 25.42128062 109.03517636 26.15837503 112.45141602 26.87597656 C130.96005593 30.88226809 130.96005593 30.88226809 135.64819336 36.97412109 C136.11225586 37.55291016 136.57631836 38.13169922 137.05444336 38.72802734 C139.31944378 42.21451013 139.24436198 45.2300902 139.17553711 49.25927734 C139.16329102 50.42265625 139.15104492 51.58603516 139.13842773 52.78466797 C139.10366138 55.21702484 139.0646962 57.64932583 139.02124023 60.08154297 C138.96375676 66.23227455 139.23214697 71.82763821 140.62011719 77.81811523 C141.24536161 80.88883716 141.56113447 83.92898703 141.85913086 87.04833984 C141.96999023 88.20269531 142.08084961 89.35705078 142.19506836 90.54638672 C142.41482696 92.92579683 142.6256866 95.30604473 142.82788086 97.68701172 C143.48338105 104.33512442 144.25456184 108.94637831 148.14819336 114.41162109 C148.80819336 115.36166016 149.46819336 116.31169922 150.14819336 117.29052734 C150.80819336 118.17611328 151.46819336 119.06169922 152.14819336 119.97412109 C154.35149876 122.94592634 156.50210669 125.89834516 158.46069336 129.03662109 C159.99280298 131.68770578 159.99280298 131.68770578 163.14819336 132.41162109 C162.022789 127.42768752 160.37208185 124.03866516 157.46630859 119.86743164 C150.54532501 109.74970019 149.78439889 100.66728137 150.19482422 88.61547852 C150.14756051 86.38171161 149.71735445 84.56307704 149.14819336 82.41162109 C148.84059112 76.36211031 149.36553497 70.48241262 150.02319336 64.47412109 C150.10158447 63.71591064 150.17997559 62.9577002 150.26074219 62.17651367 C150.91011306 56.6497014 150.91011306 56.6497014 153.14819336 54.41162109 C159.62622837 54.502978 164.02430145 57.33970137 169.39819336 60.72412109 C170.27515869 61.26319092 171.15212402 61.80226074 172.05566406 62.35766602 C178.61615731 66.40507896 185.12098156 70.54301244 191.625 74.68041992 C198.47054029 79.02075372 205.39110642 83.23189124 212.33569336 87.41162109 C213.38716553 88.04688721 214.4386377 88.68215332 215.52197266 89.33666992 C227.13326526 96.29748572 239.07702388 102.61666139 252.55834961 104.95458984 C260.5490759 106.36471801 268.43281675 108.40896699 276.22241211 110.66552734 C278.65273788 111.28527664 281.05500797 111.79799287 283.51538086 112.27490234 C289.89689411 113.53318716 296.22781275 114.98667899 302.54296875 116.54101562 C303.90066784 116.87042033 305.2607504 117.19015714 306.62304688 117.5 C319.61114414 120.46271904 328.91586579 126.19662991 337.77319336 136.22412109 C338.3175 136.82450195 338.86180664 137.42488281 339.42260742 138.04345703 C343.44906461 142.5212575 347.28322095 147.14437374 351.04663086 151.84521484 C353.12820763 154.38721473 355.29857716 156.80691445 357.52319336 159.22412109 C362.60393287 164.80939397 367.22666967 170.71173084 371.82250977 176.69628906 C373.05536772 178.2915119 374.30993209 179.8698941 375.56616211 181.44677734 C382.09192663 189.7921182 387.10777392 198.7048135 391.47631836 208.34130859 C395.44570283 217.04749186 400.91503434 221.7519879 409.6418457 225.50585938 C413.86077138 227.0305247 418.16904067 227.70400943 422.58569336 228.41162109 C439.89519147 231.48669106 449.48509103 238.77972144 462.09350586 250.57177734 C464.38523554 252.71235039 466.70835991 254.80338995 469.08569336 256.84912109 C472.86034004 260.11086462 476.50108108 263.50901863 480.14819336 266.91162109 C484.40750532 270.88508068 488.69153482 274.80800988 493.10131836 278.61474609 C496.30683116 281.42874588 499.43752025 284.32434473 502.57299805 287.21582031 C505.8546543 290.23905392 509.17755441 293.20899395 512.52319336 296.16162109 C522.41362886 305.09491768 522.41362886 305.09491768 523.96069336 309.97412109 C521.73904033 316.63908019 512.87440204 320.60661079 507.14819336 323.97412109 C495.61284977 330.1811614 495.61284977 330.1811614 487.96069336 340.28662109 C487.22786133 341.86443359 487.22786133 341.86443359 486.48022461 343.47412109 C486.0406543 344.44349609 485.60108398 345.41287109 485.14819336 346.41162109 C483.21426868 350.32260632 481.12297101 353.57204771 477.96069336 356.59912109 C475.25659321 359.30322125 474.76855033 359.92117885 474.14819336 363.41162109 C480.9277785 360.54912959 484.20333496 357.47721172 487.69506836 351.04052734 C494.61720212 338.51741976 504.70845625 333.38790943 517.72241211 328.43115234 C520.11979847 327.42355518 522.09777936 326.20105377 524.27319336 324.78662109 C529.56681646 321.87688124 534.22597607 320.86134538 540.14819336 322.41162109 C544.25695319 324.95486195 547.61174334 328.13915959 551.14819336 331.41162109 C553.10103613 332.91876228 555.05927648 334.41893896 557.02319336 335.91162109 C562.53082066 340.48949157 566.68998627 344.68100104 567.40649414 352.07836914 C567.40459228 364.13334017 566.06734434 376.05689777 564.83569336 388.03662109 C564.61958739 390.19280992 564.40408958 392.3490598 564.18920898 394.50537109 C561.63992919 419.95444107 558.85950568 445.37965787 555.9801836 470.79331207 C555.55111381 474.58067002 555.12431152 478.36825065 554.703125 482.15649414 C552.30886922 503.67533957 549.32865558 524.99154844 545.5896759 546.32354736 C543.71203504 557.06490172 542.28728108 567.83417124 541.02319336 578.66162109 C540.9374707 579.39436249 540.85174805 580.12710388 540.76342773 580.88204956 C539.85326745 588.7123157 539.02573293 596.54213041 538.36450195 604.39794922 C537.71885013 611.90091893 536.98145714 618.7776225 533.14819336 625.41162109 C532.7962793 626.05357422 532.44436523 626.69552734 532.08178711 627.35693359 C527.21396953 634.89518402 519.17830551 640.04649297 512.14819336 645.41162109 C510.71436906 646.51418592 509.28077688 647.61705268 507.84741211 648.72021484 C504.27635707 651.46246231 500.69546628 654.19155606 497.11157227 656.91699219 C484.17527188 666.7647951 471.33610325 676.74445623 458.5625 686.80224609 C456.31487855 688.57161641 454.06364725 690.33637008 451.81274414 692.1015625 C450.09564324 693.45297984 448.38570502 694.81316425 446.67553711 696.17333984 C434.88007538 705.49163721 425.3566912 709.7145058 410.23828125 709.70214844 C408.46043999 709.71222427 408.46043999 709.71222427 406.64668274 709.72250366 C403.40067323 709.73822258 400.15481758 709.74485896 396.90877461 709.74613523 C394.85993782 709.74756621 392.81112697 709.7518548 390.76229668 709.75712967 C383.55147516 709.77565693 376.34072731 709.7838019 369.12988281 709.78222656 C363.24272587 709.78117219 357.3558382 709.7949932 351.46875 709.82324219 C281.27051944 710.15295277 281.27051944 710.15295277 250.97419739 704.85676575 C248.55196737 704.4752225 246.36184873 704.2998947 243.91870117 704.32983398 C243.14480042 704.3363649 242.37089966 704.34289581 241.57354736 704.34962463 C240.34979401 704.36677773 240.34979401 704.36677773 239.10131836 704.38427734 C237.35262233 704.39691088 235.60392432 704.40927275 233.85522461 704.42138672 C231.11411291 704.44630592 228.37310514 704.47442446 225.63208008 704.50756836 C222.97598584 704.53764897 220.3200278 704.5554956 217.66381836 704.57177734 C216.83988586 704.58523697 216.01595337 704.59869659 215.16705322 704.61256409 C213.15966858 704.62147323 211.15235685 704.52564381 209.14819336 704.41162109 C206.66558034 701.92900808 206.86841853 701.07870201 206.76928711 697.64990234 C206.71804688 696.21807617 206.71804688 696.21807617 206.66577148 694.75732422 C206.6393457 693.75636719 206.61291992 692.75541016 206.58569336 691.72412109 C206.39479668 685.53825636 206.10637413 679.53631261 205.14819336 673.41162109 C205.01986231 671.66434447 204.93124376 669.91329233 204.89819336 668.16162109 C204.87241211 667.33146484 204.84663086 666.50130859 204.82006836 665.64599609 C205.22968024 662.85673423 205.91231491 662.08602334 208.14819336 660.41162109 C214.63507194 657.26238958 221.59511895 657.14331616 228.65820312 656.89770508 C235.60267769 656.57069709 241.62419828 654.85102795 248.14819336 652.41162109 C248.14819336 651.42162109 248.14819336 650.43162109 248.14819336 649.41162109 C244.74718647 649.81974192 241.65413187 650.21787296 238.44506836 651.44677734 C234.34790889 652.64582757 230.75863969 652.58942933 226.52319336 652.47412109 C220.0604771 652.37314115 213.76934544 652.56674148 207.33569336 653.29052734 C205.14819336 653.41162109 205.14819336 653.41162109 203.14819336 652.41162109 C202.33178711 650.45068359 202.33178711 650.45068359 201.58569336 648.03662109 C201.3369043 647.24513672 201.08811523 646.45365234 200.83178711 645.63818359 C200.4934082 644.53603516 200.4934082 644.53603516 200.14819336 643.41162109 C199.81819336 642.42162109 199.48819336 641.43162109 199.14819336 640.41162109 C198.15819336 640.08162109 197.16819336 639.75162109 196.14819336 639.41162109 C196.29256836 640.31138672 196.43694336 641.21115234 196.58569336 642.13818359 C198.28951478 653.94661264 198.39866663 665.49940704 198.14819336 677.41162109 C198.12885742 678.58015625 198.10952148 679.74869141 198.08959961 680.95263672 C198.02353213 684.6271546 197.93357255 688.30032309 197.83569336 691.97412109 C197.81337646 693.13403564 197.79105957 694.2939502 197.76806641 695.48901367 C197.71453003 697.12326294 197.71453003 697.12326294 197.65991211 698.79052734 C197.63372803 699.75547119 197.60754395 700.72041504 197.58056641 701.71459961 C197.06826955 704.91016332 196.05536797 706.811107 194.14819336 709.41162109 C191.81909491 710.79897948 189.59236514 711.95885453 187.14819336 713.09912109 C178.83068199 717.22558114 171.19329405 722.21467409 163.52319336 727.41162109 C161.17747285 728.99719598 158.83110466 730.5818082 156.48413086 732.16552734 C155.92441589 732.54337372 155.36470093 732.92122009 154.7880249 733.31051636 C148.9885133 737.21343911 143.07294724 740.85039975 137.01489258 744.33691406 C134.86789461 745.57299634 132.7287999 746.82225067 130.58959961 748.07177734 C126.56416397 750.4190352 122.52686519 752.74495058 118.48510742 755.06396484 C116.22757536 756.36584292 113.9801809 757.68380859 111.73413086 759.00537109 C100.39445415 765.62555354 89.55296285 771.00734463 76.06170654 767.93673706 C70.45033645 766.39873077 64.95955333 764.4933481 59.46069336 762.59912109 C57.80955297 762.04473899 56.15786214 761.4919935 54.50561523 760.94091797 C50.76121275 759.68851143 47.02352331 758.41761058 43.28794861 757.13916016 C40.99881042 756.36082934 38.70568401 755.595228 36.41137695 754.83227539 C33.39573486 753.82940658 30.38595126 752.81363758 27.38647461 751.76318359 C26.5842749 751.48249023 25.7820752 751.20179688 24.95556641 750.91259766 C23.72060425 750.47898926 23.72060425 750.47898926 22.46069336 750.03662109 C21.15902222 749.57980957 21.15902222 749.57980957 19.83105469 749.11376953 C18.08665352 748.50099808 16.34242759 747.88772748 14.59838867 747.27392578 C13.05894439 746.73214447 11.51926541 746.19102908 9.97924805 745.65087891 C8.09716285 744.99035268 6.21638483 744.32610523 4.33569336 743.66162109 C3.29799805 743.29552734 2.26030273 742.92943359 1.19116211 742.55224609 C-0.95816122 741.74659473 -3.08336804 740.87515641 -5.18774414 739.95849609 C-9.29083268 738.22627535 -13.43559919 736.79983087 -17.66430664 735.41162109 C-18.45748291 735.14526855 -19.25065918 734.87891602 -20.06787109 734.60449219 C-24.20006829 733.22836184 -28.29898442 732.04125128 -32.53930664 731.03662109 C-37.99717427 729.43851259 -40.50252297 725.77200927 -43.85180664 721.41162109 C-48.52893955 715.81028733 -53.55592714 710.67642065 -58.78930664 705.59912109 C-64.2239623 700.26474963 -69.01330986 695.04406006 -73.17602539 688.64599609 C-76.60271812 684.07707246 -80.32492493 681.96968561 -85.72680664 680.34912109 C-89.1995063 679.2697685 -92.54868286 678.18448985 -95.85180664 676.66162109 C-98.92552459 675.15521084 -98.92552459 675.15521084 -102.85180664 675.41162109 C-102.85180664 676.07162109 -102.85180664 676.73162109 -102.85180664 677.41162109 C-101.76641602 677.95431641 -100.68102539 678.49701172 -99.56274414 679.05615234 C-90.93774414 683.36865234 -90.93774414 683.36865234 -88.83178711 684.42871094 C-87.09131308 685.29272431 -85.33219455 686.11896434 -83.57055664 686.93896484 C-75.65226483 691.22803958 -71.79705822 699.12885595 -67.93579102 706.87451172 C-65.28463213 712.01536401 -62.0560427 715.79248206 -57.73461914 719.67724609 C-55.85180664 721.41162109 -55.85180664 721.41162109 -53.85180664 724.41162109 C-54.0594166 727.17975393 -54.3869358 728.84685707 -56.1640625 731.00585938 C-59.05895339 733.41708197 -62.79512073 733.63538327 -66.41430664 734.28662109 C-72.30559198 735.41251617 -78.02885527 736.69627737 -83.7578125 738.47680664 C-104.27998055 744.81025161 -117.99151993 739.54062979 -136.52832031 730.39599609 C-138.02997455 729.65919479 -139.53552178 728.93027287 -141.04492188 728.20947266 C-154.89425268 721.59315654 -164.63799571 713.86885875 -173.85180664 701.41162109 C-176.78888935 697.69026361 -179.79907481 694.03846524 -182.85180664 690.41162109 C-183.3687207 689.76064453 -183.88563477 689.10966797 -184.41821289 688.43896484 C-193.87327567 677.60143857 -209.74940296 673.93021218 -223.00708008 670.28881836 C-233.52816955 667.38078182 -243.49000186 663.90734796 -252.47680664 657.59912109 C-253.11303955 657.16172607 -253.74927246 656.72433105 -254.40478516 656.27368164 C-263.65661644 649.84837563 -271.90775638 642.62431998 -280.05664062 634.8659668 C-281.97841285 633.03692528 -283.91231479 631.22184695 -285.85180664 629.41162109 C-286.43760498 628.8537793 -287.02340332 628.2959375 -287.62695312 627.72119141 C-291.65625464 624.03991889 -295.37338805 622.08441885 -300.53930664 620.41162109 C-301.949779 619.91357618 -303.35862872 619.41091351 -304.76586914 618.90380859 C-305.8008252 618.5320752 -305.8008252 618.5320752 -306.85668945 618.15283203 C-316.37898178 614.61518158 -324.35825954 610.52359296 -328.97875977 601.11743164 C-332.83562425 591.8211118 -336.08035552 582.323518 -339.37994385 572.81863403 C-345.33739084 555.71562524 -351.59323174 538.97336199 -359.34790039 522.59033203 C-360.94262173 519.21967102 -362.508536 515.83661496 -364.07055664 512.45068359 C-371.80690595 495.71193179 -379.73480895 479.06175776 -387.64567566 462.40499878 C-388.70421749 460.17365972 -389.75949165 457.94079727 -390.81445312 455.70776367 C-392.16863215 452.84329601 -393.53945976 449.98766526 -394.92236328 447.13696289 C-395.56558993 445.79626179 -396.20874142 444.45552463 -396.85180664 443.11474609 C-397.41770508 441.94717773 -397.98360352 440.77960938 -398.56665039 439.57666016 C-400.36678973 435.14333827 -400.56987257 432.11894219 -399.85180664 427.41162109 C-397.85180664 425.41162109 -397.85180664 425.41162109 -394.41430664 424.92333984 C-388.45364919 425.08816918 -383.87046266 428.28091714 -378.85180664 431.22412109 C-369.41412722 436.56213189 -359.87318818 441.33175258 -349.95922852 445.71948242 C-332.82071594 453.33841115 -332.82071594 453.33841115 -326.85180664 461.41162109 C-326.38726074 462.02166992 -325.92271484 462.63171875 -325.4440918 463.26025391 C-324.00070274 465.17382658 -322.58067512 467.10298057 -321.16430664 469.03662109 C-317.80513279 473.59970017 -314.39387159 478.00455532 -310.59326172 482.20776367 C-304.91758641 488.50606979 -301.00171328 495.17031689 -297.28686523 502.78979492 C-295.52486389 506.3824909 -293.87960765 509.56796014 -291.19946289 512.56005859 C-288.59705639 515.72105152 -287.70990985 518.16783566 -286.66430664 522.09912109 C-285.67345818 525.75471945 -284.96382129 528.24359912 -282.85180664 531.41162109 C-281.86180664 531.74162109 -280.87180664 532.07162109 -279.85180664 532.41162109 C-280.15924805 531.48542969 -280.15924805 531.48542969 -280.47290039 530.54052734 C-281.83508462 526.25844581 -282.95751378 522.35084252 -283.16430664 517.84912109 C-283.55247122 513.15811083 -285.63514481 510.3527803 -288.35180664 506.61083984 C-291.3940137 502.15052064 -293.65820189 496.89510878 -292.85180664 491.41162109 C-290.85180664 489.41162109 -290.85180664 489.41162109 -287.07836914 489.18115234 C-285.5444533 489.18514692 -284.01053672 489.19991771 -282.47680664 489.22412109 C-281.70852539 489.22476562 -280.94024414 489.22541016 -280.14868164 489.22607422 C-276.50909814 489.25441008 -273.38209991 489.50445595 -269.85180664 490.41162109 C-259.4522153 491.20548303 -251.01214722 490.33634088 -241.25805664 486.65771484 C-236.86103893 485.04917281 -232.46586967 484.13901456 -227.85180664 483.41162109 C-227.85180664 482.42162109 -227.85180664 481.43162109 -227.85180664 480.41162109 C-236.75590424 480.70093144 -236.75590424 480.70093144 -245.28930664 482.97412109 C-254.40369558 486.38574558 -265.62155827 484.86704639 -274.85180664 482.41162109 C-275.18180664 482.08162109 -275.51180664 481.75162109 -275.85180664 481.41162109 C-277.34206437 481.29084497 -278.83746116 481.23207455 -280.33227539 481.20068359 C-281.24944336 481.17232422 -282.16661133 481.14396484 -283.11157227 481.11474609 C-285.04368324 481.06318876 -286.97599952 481.01876718 -288.90844727 480.98193359 C-295.01488135 480.77739149 -299.63182664 480.19431986 -304.43383789 476.04443359 C-308.39026504 471.19624032 -311.91621762 466.0747606 -315.41040039 460.88818359 C-316.22418768 459.72931904 -317.03799112 458.57046582 -317.85180664 457.41162109 C-318.32626221 456.69240479 -318.80071777 455.97318848 -319.28955078 455.23217773 C-323.94989397 448.60965849 -329.30606365 445.29949711 -336.41430664 441.59912109 C-338.05411499 440.71353516 -338.05411499 440.71353516 -339.72705078 439.81005859 C-341.98454643 438.59259143 -344.24654963 437.38344611 -346.51293945 436.18261719 C-350.68460605 433.96988909 -354.83074607 431.71225583 -358.97460938 429.44799805 C-360.78672722 428.45886997 -362.60117212 427.47398723 -364.41845703 426.49438477 C-369.5484794 423.72114481 -374.56019704 420.80096214 -379.54638672 417.77734375 C-383.58255206 415.38633359 -387.77802822 413.32579652 -391.96899414 411.22021484 C-396.06023257 408.65348938 -398.32533065 405.99104908 -399.85180664 401.41162109 C-402.15030798 387.37429481 -395.89991272 374.17986147 -391.28930664 361.22412109 C-390.47942597 358.89601831 -389.67146934 356.56724528 -388.86547852 354.23779297 C-385.91154772 345.736575 -382.92565536 337.24816344 -379.77026367 328.81933594 C-379.45042007 327.96409836 -379.13057648 327.10886078 -378.80104065 326.22770691 C-378.21890668 324.68055506 -377.63123129 323.13546875 -377.03623962 321.59321594 C-373.66930704 312.68588326 -372.50846409 304.41112643 -372.53930664 294.91162109 C-372.51513672 293.46916016 -372.51513672 293.46916016 -372.49047852 291.99755859 C-372.48454614 282.9091598 -374.12443813 274.29343592 -375.85180664 265.41162109 C-376.7954271 260.43752729 -377.72274227 255.46041244 -378.64160156 250.48168945 C-378.90724302 249.05727071 -379.17777249 247.63375506 -379.453125 246.21118164 C-382.44218947 230.71724476 -384.71471911 215.42940325 -375.61450195 201.52050781 C-366.91294573 188.78840059 -356.82013714 178.38986114 -344.44946289 169.14990234 C-340.24774024 165.99182196 -336.20964753 162.64122902 -332.16430664 159.28662109 C-327.61357669 155.51370346 -323.0583132 151.75737154 -318.41430664 148.09912109 C-316.89236048 146.87133259 -315.37148482 145.64221564 -313.85180664 144.41162109 C-313.08223633 143.81349609 -312.31266602 143.21537109 -311.51977539 142.59912109 C-303.45017977 135.92443134 -297.83146964 127.52021812 -291.78295898 119.07324219 C-288.44937805 114.47871635 -284.99227626 109.97920849 -281.53930664 105.47412109 C-280.18487855 103.7034877 -278.83070294 101.93266114 -277.47680664 100.16162109 C-276.8490332 99.34048828 -276.22125977 98.51935547 -275.57446289 97.67333984 C-273.37663311 94.78775381 -271.20574768 91.88334192 -269.03930664 88.97412109 C-251.59406344 65.69155942 -238.5398737 55.62905432 -209.85180664 48.41162109 C-209.20123291 48.2479303 -208.55065918 48.0842395 -207.88037109 47.91558838 C-201.74324126 46.37317335 -195.60590201 44.83161947 -189.45629883 43.33959961 C-182.03105374 41.52216893 -174.70796494 39.51659868 -167.38700867 37.32350159 C-159.20617476 34.89002661 -150.93924401 32.80990484 -142.66430664 30.72412109 C-140.34332463 30.13788245 -138.02261173 29.55065088 -135.70256042 28.96073914 C-134.27954711 28.59899946 -132.85600846 28.23931714 -131.43183899 27.88215637 C-128.45192939 27.12542073 -125.54023503 26.30514326 -122.62988281 25.31054688 C-118.80825584 24.07395047 -115.33745021 24.005642 -111.35180664 23.97412109 C-110.61833008 23.94125 -109.88485352 23.90837891 -109.12915039 23.87451172 C-105.20089987 23.83586167 -102.63327604 24.16371538 -99.49633789 26.63427734 C-97.08604461 29.16561933 -95.56547663 31.17614131 -94.03930664 34.28662109 C-91.58364845 39.05539267 -88.98131573 43.68656271 -86.22680664 48.28662109 C-85.85450928 48.91681152 -85.48221191 49.54700195 -85.09863281 50.19628906 C-81.17706236 56.73892249 -77.04988179 61.3188753 -70.78930664 65.66162109 C-70.16475586 66.10763672 -69.54020508 66.55365234 -68.89672852 67.01318359 C-66.23959836 68.88480142 -63.95164986 70.37834002 -60.85180664 71.41162109 C-63.40907798 65.89901259 -67.15463174 61.70147402 -71.97680664 58.03662109 C-78.70262776 51.89565399 -80.67419086 41.43361099 -83.58227539 33.00927734 C-84.6914621 29.62890094 -84.6914621 29.62890094 -85.85180664 27.41162109 C-86.33689947 23.12663446 -86.44813158 21.16579675 -83.72680664 17.72412109 C-76.61195078 12.00130225 -69.83214914 8.735225 -60.66430664 7.97412109 C-50.70876302 7.0754791 -41.03407415 3.88454338 -32.12133789 -0.53759766 C-21.97409771 -5.23571746 -10.3675945 -2.53275973 0 0 Z " fill="#625138" transform="translate(556.851806640625,210.58837890625)"/>
<path d="M0 0 C1.06412109 -0.01224609 2.12824219 -0.02449219 3.22460938 -0.03710938 C8.5167636 -0.04691571 13.19877132 0.18887313 18.27294922 1.69384766 C20.7484418 2.29301524 23.14329253 2.4561178 25.68359375 2.62890625 C31.21758804 3.07204511 36.13462016 4.33259591 41.375 6.125 C42.27549072 6.43074951 43.17598145 6.73649902 44.10375977 7.05151367 C53.46409269 10.37774987 61.92516326 14.90194112 70.3125 20.1875 C70.93705078 20.57776367 71.56160156 20.96802734 72.20507812 21.37011719 C91.66442545 33.76574243 108.98122998 52.20704841 114.3125 75.1875 C115.41323015 86.11012991 115.57266261 97.25885966 108.69921875 106.3125 C106.96627728 108.34130953 105.16644943 110.26920525 103.3125 112.1875 C94.73205139 121.42014422 91.76692157 129.85845993 91.9453125 142.41796875 C92.2128511 148.00998286 93.79029741 152.98865618 95.51391602 158.27709961 C97.75803598 165.25489733 98.92942908 170.82926269 95.6875 177.5625 C91.4604084 182.23454861 87.33706383 184.74989145 81.12109375 185.42578125 C75.15381894 185.6125658 70.56640382 184.51762751 65.05078125 182.2578125 C58.51776029 179.70424939 52.87301723 178.87102539 45.9375 178.9375 C44.73867188 178.92589844 44.73867188 178.92589844 43.515625 178.9140625 C39.46656425 178.92716626 35.79108809 179.21759553 31.85546875 180.19140625 C26.87622281 181.40901469 22.10552058 181.45173253 17 181.375 C16.07574219 181.3656543 15.15148437 181.35630859 14.19921875 181.34667969 C11.56961104 181.31067031 8.94147716 181.25466558 6.3125 181.1875 C5.13300781 181.15785156 3.95351563 181.12820313 2.73828125 181.09765625 C-7.79768926 180.52092088 -17.27951529 177.00681257 -26.75 172.546875 C-57.25814598 158.42874362 -84.6229214 161.40326116 -116.7734375 168.52734375 C-175.81574052 181.58236758 -250.76957444 179.4959581 -304.6875 148.1875 C-310.18734121 142.33283033 -309.0033483 134.5461135 -308.890625 127.04296875 C-308.28798639 107.88714523 -297.49430252 89.36896734 -283.80859375 76.37890625 C-256.41109447 52.41065455 -220.45893354 48.28927646 -185.5144043 46.60620117 C-155.41879786 45.11807893 -125.64773312 39.45906567 -97.87109375 27.51171875 C-93.3947901 25.64979613 -88.85049989 23.98275894 -84.29321289 22.33032227 C-81.34125076 21.24611739 -78.50983262 20.0980857 -75.69921875 18.68359375 C-72.18577982 16.93826676 -68.57939185 15.6411286 -64.875 14.375 C-58.22043439 12.09257743 -58.22043439 12.09257743 -51.640625 9.60546875 C-40.3392678 5.21348519 -28.94410697 3.26056081 -16.96142578 1.57299805 C-11.09708209 0.57881739 -6.04425064 0.00359563 0 0 Z " fill="#FCFCFB" transform="translate(552.6875,320.8125)"/>
<path d="M0 0 C1.05743408 0.01305176 1.05743408 0.01305176 2.13623047 0.02636719 C16.98013478 0.23487928 30.21532868 4.35558274 43.921875 9.796875 C53.62888257 13.59098456 63.92536249 17.50823457 74.3515625 14.26953125 C78.7163468 12.26696168 81.73789143 9.53395095 85 6 C87.61122247 3.27038457 89.72217163 2.7644746 93.37109375 2.53125 C95.05972022 2.50476174 96.74867356 2.49487846 98.4375 2.5 C99.7069043 2.45746094 99.7069043 2.45746094 101.00195312 2.4140625 C105.41825732 2.40022913 107.41412293 2.56546202 111.0546875 5.265625 C113.5298458 8.74476317 113.80246337 10.46659393 113.53515625 14.61328125 C112.50417037 19.21132778 109.9827388 22.435117 107 26 C106.30777344 26.82757812 105.61554688 27.65515625 104.90234375 28.5078125 C94.01646615 40.39322811 81.31063051 44.44374331 66.14819336 48.42651367 C48.61894861 53.10870049 36.79661465 61.85749093 24.3125 74.875 C12.0581914 87.32466387 0.96328249 94.63244221 -16 99 C-16.61902695 99.18168732 -17.23805389 99.36337463 -17.87583923 99.55056763 C-20.43379131 100.09178206 -22.76986961 100.09705738 -25.38500977 100.06591797 C-27.00434166 100.05128006 -27.00434166 100.05128006 -28.65638733 100.03634644 C-29.82294357 100.02177399 -30.98949982 100.00720154 -32.19140625 99.9921875 C-34.68944886 99.97464197 -37.18749603 99.95773658 -39.68554688 99.94140625 C-43.60161196 99.91071876 -47.51744374 99.87553994 -51.43334961 99.82861328 C-66.5959957 99.65658504 -81.1297671 99.86513052 -96 103 C-96.71817398 103.14536697 -97.43634796 103.29073395 -98.17628479 103.44050598 C-108.35465062 105.50450674 -118.02809081 108.59118972 -127.85424805 111.9296875 C-145.65027333 117.96404445 -163.54117668 122.48123948 -182 126 C-183.62228516 126.309375 -183.62228516 126.309375 -185.27734375 126.625 C-200.98610919 128.78861762 -217.87143064 126.36299464 -230.75 116.6875 C-232.18277151 115.47714429 -233.5999123 114.24801825 -235 113 C-235.68835938 112.42765625 -236.37671875 111.8553125 -237.0859375 111.265625 C-243.59325082 105.43148203 -248.82792885 97.06932968 -250.50390625 88.390625 C-250.5625 86.25 -250.5625 86.25 -250 83 C-249.01 82.01 -249.01 82.01 -248 81 C-245.43907214 81.19434214 -242.97440842 81.50320245 -240.4375 81.875 C-192.82889718 87.74166294 -134.54005661 80.92777951 -95.46875 50.86328125 C-86.48041682 43.61085883 -78.30201191 35.38555323 -70.25 27.125 C-50.33777959 7.06373603 -27.57132783 -0.66682039 0 0 Z " fill="#FCFCFC" transform="translate(536,512)"/>
<path d="M0 0 C9.32461313 6.37904736 16.25568291 17.91561869 18.828125 28.81640625 C20.22439249 39.638609 19.98798448 51.34987158 13.390625 60.50390625 C7.06856692 67.18061637 -1.79636234 69.83614359 -10.421875 72.19140625 C-22.52239253 75.50937796 -34.42911658 80.558155 -43.171875 89.81640625 C-43.7596875 90.38488281 -44.3475 90.95335937 -44.953125 91.5390625 C-49.82248914 96.56860309 -52.56970173 102.32472157 -55.3984375 108.64453125 C-57.61118533 112.6021331 -60.13963462 114.80028606 -64.171875 116.81640625 C-68.13653902 117.45430535 -71.69877733 117.66648329 -75.25 115.6171875 C-77.76993769 113.51547476 -79.74153645 111.76673722 -81.109375 108.74609375 C-83.13163893 105.07330559 -87.37156149 104.12645221 -91.171875 102.81640625 C-92.76996357 102.45505501 -94.37436831 102.12028168 -95.984375 101.81640625 C-98.78586937 101.2394842 -100.22410021 100.78245986 -102.671875 99.19140625 C-104.78835506 95.84031282 -105.33281274 92.70817333 -105.171875 88.81640625 C-103.20116385 81.32770388 -97.99176434 77.61810209 -91.9296875 73.171875 C-82.18439934 65.97250122 -76.11156339 56.46002136 -69.921875 46.19140625 C-63.84092856 36.29484468 -57.46232145 26.85831131 -50.171875 17.81640625 C-49.429375 16.87796875 -48.686875 15.93953125 -47.921875 14.97265625 C-43.79869973 10.06122688 -39.25424199 6.10096331 -34.109375 2.31640625 C-33.26076904 1.683396 -33.26076904 1.683396 -32.39501953 1.03759766 C-22.49843924 -5.90682105 -10.48665376 -5.71484908 0 0 Z " fill="#FCFCFC" transform="translate(680.171875,576.18359375)"/>
<path d="M0 0 C7.20866772 6.0072231 10.9879847 13.06427906 12.55078125 22.23046875 C13.23974393 31.66000281 10.56740803 38.31957522 6.62866211 46.72094727 C3.20169385 54.11478979 1.00790771 61.4923776 -0.70751953 69.45336914 C-2.5964365 77.44777751 -6.30492252 83.48497809 -13.16796875 88.15625 C-14.16441406 88.5996875 -15.16085937 89.043125 -16.1875 89.5 C-17.69376953 90.19609375 -17.69376953 90.19609375 -19.23046875 90.90625 C-28.09482774 94.40698416 -40.63545183 94.76012673 -49.625 91.375 C-63.85144132 84.37158892 -71.59161197 71.87857516 -76.8125 57.25 C-80.39932166 46.55474997 -81.36071375 29.8675445 -77.375 19.25 C-76.25390625 17.0234375 -76.25390625 17.0234375 -75 15 C-74.57589844 14.31164062 -74.15179688 13.62328125 -73.71484375 12.9140625 C-56.89547858 -11.54195037 -24.22320158 -15.11066384 0 0 Z " fill="#635239" transform="translate(569,361)"/>
<path d="M0 0 C2.8125 2.125 2.8125 2.125 5 5 C8.58217073 9.4234563 8.58217073 9.4234563 13 13 C16.78162145 13.30426839 20.54343111 13.37865432 24.3359375 13.4609375 C28.45264224 14.06659342 30.09185276 15.09185276 33 18 C34.96554631 21.93109263 34.86879664 25.7439962 34 30 C32.65027512 32.321075 31.29511245 34.4460267 29.75 36.625 C16.6073927 55.62238979 12.62200829 95.57654764 16.5 117.875 C17.72311922 125.51949515 18.20096414 133.27845737 14 140 C10.57333741 143.25950832 7.80895647 144.27753859 3.1875 144.5 C-1.97813087 144.28118356 -6.72785354 142.98313675 -11 140 C-12.81547561 137.17786644 -13.06189676 135.51256301 -13.5 132.0625 C-14.16851216 129.07905729 -14.6356339 128.23572902 -17.24609375 126.546875 C-19.03832465 125.72489392 -20.83793103 124.91880505 -22.64453125 124.12890625 C-25 123 -25 123 -27.125 120.75 C-28.43297137 116.63923285 -29.10372795 113.24136966 -28 109 C-26.18586874 106.55113723 -24.15898199 104.46891358 -22.03515625 102.28515625 C-12.05778832 91.08216155 -12.49490777 70.75898218 -12.60888672 56.56860352 C-12.62511288 54.17081914 -12.60884827 51.77469028 -12.58984375 49.37695312 C-12.57642735 39.53197373 -13.35488511 30.56351607 -17.08129883 21.31689453 C-19.01774845 16.43331575 -18.55754796 11.55526536 -16.8125 6.6875 C-12.38351405 0.12038291 -7.71336996 -1.46617776 0 0 Z " fill="#FBFAFA" transform="translate(588,689)"/>
<path d="M0 0 C9.2014948 5.85215069 15.32955309 18.93539985 17.890625 29.1796875 C17.890625 30.1696875 17.890625 31.1596875 17.890625 32.1796875 C18.550625 32.1796875 19.210625 32.1796875 19.890625 32.1796875 C29.49758611 65.24323895 28.98721264 96.54171881 18.74780273 129.39257812 C18.1893212 131.20847821 17.64880984 133.03003336 17.12915039 134.85742188 C15.61166411 140.18307368 13.76052901 145.02061123 11.203125 149.9296875 C10.85572266 150.60797607 10.50832031 151.28626465 10.15039062 151.98510742 C4.49071843 162.93351384 -1.52718441 173.42086044 -9.109375 183.1796875 C-10.15738281 184.53513672 -10.15738281 184.53513672 -11.2265625 185.91796875 C-21.82429482 199.24999144 -34.9021236 212.81255302 -51.109375 219.1796875 C-54.609375 219.4296875 -54.609375 219.4296875 -57.109375 219.1796875 C-57.859375 217.4921875 -57.859375 217.4921875 -58.109375 215.1796875 C-55.56133981 211.08067436 -51.91105799 208.21629781 -48.296875 205.09375 C-33.23680696 191.91619047 -22.57190281 175.64831445 -13.109375 158.1796875 C-12.57570313 157.21289062 -12.04203125 156.24609375 -11.4921875 155.25 C-5.83163626 144.52659548 -2.70245958 133.08561815 0.140625 121.3671875 C0.39900146 120.30556396 0.65737793 119.24394043 0.92358398 118.15014648 C3.34371264 107.86076909 4.05356418 98.23942545 4.015625 87.6796875 C4.01949219 86.60332031 4.02335938 85.52695312 4.02734375 84.41796875 C3.99799359 60.32148423 -3.82880674 39.1813862 -18.61328125 20.11328125 C-21.12993095 16.86069221 -21.45059542 14.40780669 -21.390625 10.27734375 C-20.79972316 5.87020087 -18.20457126 3.14603714 -14.984375 0.3046875 C-9.98240728 -1.65260422 -5.06989545 -1.97162601 0 0 Z " fill="#F9F8F8" transform="translate(715.109375,545.8203125)"/>
<path d="M0 0 C9.76994002 5.69477787 13.0860096 16.20375151 16.08984375 26.4921875 C19.04790683 37.89279114 21.12942971 49.37371405 21.203125 61.171875 C21.21018463 61.92775909 21.21724426 62.68364319 21.22451782 63.46243286 C21.45296876 95.1189162 21.45296876 95.1189162 18 110 C17.78537109 110.93473145 17.57074219 111.86946289 17.34960938 112.83251953 C14.68539362 124.16277595 11.73886131 135.34073823 7 146 C6.54633057 147.03423096 6.54633057 147.03423096 6.08349609 148.08935547 C-6.88360241 177.40491005 -28.00508362 212.53480795 -58.640625 226.17578125 C-61.23163972 227.0809205 -63.2753092 227.15569662 -66 227 C-66.70214844 224.72070312 -66.70214844 224.72070312 -67 222 C-65.72753906 220.16992188 -65.72753906 220.16992188 -63.765625 218.46875 C-62.69465576 217.5106543 -62.69465576 217.5106543 -61.60205078 216.53320312 C-60.43778564 215.52676758 -60.43778564 215.52676758 -59.25 214.5 C-51.80745271 207.77611746 -45.07247603 200.98336251 -39 193 C-38.56026855 192.42411133 -38.12053711 191.84822266 -37.66748047 191.25488281 C-10.47756518 155.04725577 5.28944904 105.86282969 -0.82006836 60.47192383 C-2.99846078 46.55771367 -6.64087642 24.35912358 -17 14 C-17.44171515 10.94585527 -17.47209366 8.05045134 -17 5 C-12.25034577 -1.16171359 -7.22152957 -2.04824583 0 0 Z " fill="#F9F9F8" transform="translate(765,566)"/>
<path d="M0 0 C3.01680578 2.559714 4.8749233 4.43470172 5.44726562 8.44799805 C5.45435547 9.45902588 5.46144531 10.47005371 5.46875 11.51171875 C5.49066406 12.63126953 5.51257813 13.75082031 5.53515625 14.90429688 C5.54417969 16.07025391 5.55320312 17.23621094 5.5625 18.4375 C5.62549903 26.44287706 5.94432524 33.31318851 9.0625 40.75 C11.41350909 46.81312871 12.12666261 51.83755496 9.875 58 C6.25131492 63.49800495 1.36603954 66.25387194 -4.9375 67.75 C-9.59082588 68.16428656 -14.00470072 67.87973032 -18.62744141 67.23681641 C-22.63688031 66.73064139 -26.54145505 66.68075044 -30.5859375 66.7578125 C-32.01822207 66.77533008 -33.45051419 66.79223824 -34.8828125 66.80859375 C-37.09657586 66.83943565 -39.30994353 66.87494636 -41.5234375 66.92138672 C-61.65863936 67.31997056 -61.65863936 67.31997056 -69.9375 60.875 C-73.81339 57.14502586 -74.99955376 53.87376288 -75.4375 48.5625 C-75.16276097 39.34347936 -68.20814484 32.27164051 -61.859375 26.2421875 C-48.40514206 14.76651823 -18.28312171 -7.78005179 0 0 Z " fill="#625138" transform="translate(460.9375,381.25)"/>
<path d="M0 0 C10.05297476 7.37218149 12.0560179 22.27953283 14.09765625 33.82421875 C15.364549 42.40908408 15.35029602 50.96631502 15.3125 59.625 C15.31100952 60.46760376 15.30951904 61.31020752 15.3079834 62.17834473 C15.27151967 73.63067735 14.99422593 84.79085046 12.44433594 96.00488281 C11.98294535 98.07657725 11.60027485 100.15301186 11.2265625 102.2421875 C5.16684054 134.48236691 -10.17647356 166.70082873 -31 192 C-31.67289063 192.86753906 -32.34578125 193.73507812 -33.0390625 194.62890625 C-40.37628656 203.9495142 -49.57988342 214.69309597 -61 219 C-63.7890625 218.64453125 -63.7890625 218.64453125 -66 218 C-65.60357155 213.05365414 -63.11234391 210.64531266 -59.75 207.3125 C-41.57211838 188.36715655 -29.10341005 165.03444765 -19 141 C-18.50886719 139.865625 -18.01773438 138.73125 -17.51171875 137.5625 C-2.45766878 101.02263876 0.89461519 55.08158741 -13.21484375 17.7890625 C-13.89736221 16.17142089 -14.58078907 14.55416186 -15.265625 12.9375 C-16.35631714 10.05992926 -16.63155589 8.01743369 -16 5 C-10.94278489 -0.98880737 -7.43648677 -1.84621112 0 0 Z " fill="#F9F9F8" transform="translate(811,591)"/>
<path d="M0 0 C6.61791826 2.3845515 12.49468595 5.70667555 16 12 C16.8125 15.4375 16.8125 15.4375 16 19 C13.9444074 21.9636186 11.55645834 24.4655327 9 27 C7.8553125 28.2375 7.8553125 28.2375 6.6875 29.5 C5 31 5 31 3 31 C2.731875 31.5775 2.46375 32.155 2.1875 32.75 C1 35 1 35 -0.625 36.75 C-2.73707979 40.20613057 -2.26280281 42.9922571 -2 47 C-1.67 47.33 -1.34 47.66 -1 48 C-0.67578125 50.8203125 -0.67578125 50.8203125 -1 54 C-2.79296875 56.0546875 -2.79296875 56.0546875 -5.1875 57.875 C-10.4053053 62.15606545 -13.85807772 66.57423315 -16 73 C-16.10156642 74.54464875 -16.15463008 76.09278518 -16.17578125 77.640625 C-16.19962891 78.54683594 -16.22347656 79.45304688 -16.24804688 80.38671875 C-16.29065891 82.27972627 -16.32210147 84.17302163 -16.34179688 86.06640625 C-16.52852658 92.20677385 -17.36412234 95.99321765 -21 101 C-25.09866736 103.73244491 -28.1857741 103.73099442 -33 103 C-38.38182497 101.02509055 -43.41296375 98.57231659 -47 94 C-47.92259064 90.67019011 -48.5994528 87.4225417 -49.15820312 84.01953125 C-50.04194821 79.69447468 -50.88764258 77.82945456 -54.5859375 75.32421875 C-57.1752065 73.33128055 -57.91075614 72.38197811 -58.66577148 69.15039062 C-58.90730839 65.63843891 -58.9053475 62.20623074 -58.8125 58.6875 C-58.83119141 57.50220703 -58.84988281 56.31691406 -58.86914062 55.09570312 C-58.78385855 47.00288333 -57.19860059 42.16792634 -52 36 C-51.46084961 35.29439941 -50.92169922 34.58879883 -50.36621094 33.86181641 C-48.23338897 31.08244178 -46.70562358 29.29257563 -43.4375 27.9375 C-41 28 -41 28 -38.75 28.9375 C-33.62504657 30.91759564 -28.87297714 30.77122588 -23.8125 28.6875 C-18.36216763 23.47940462 -15.36171455 16.84620965 -13.4375 9.625 C-11.41476942 2.28237109 -7.88125199 -1.29200852 0 0 Z " fill="#FBFAFA" transform="translate(811,442)"/>
<path d="M0 0 C5.7761752 2.20451657 11.28443618 4.92206278 15 10 C15.73952712 13.86197497 15.31884509 15.47198091 13.28515625 18.83984375 C10.25794133 23.02619738 6.78336253 26.66272871 3.2421875 30.4140625 C-0.02775853 34.18532429 -1.27942188 36.62779217 -1.1875 41.625 C-1.17783203 42.78902344 -1.17783203 42.78902344 -1.16796875 43.9765625 C-1.12050633 46.0687268 -1.12050633 46.0687268 0 48 C0.5 50.625 0.5 50.625 0 54 C-1.3515625 55.75 -1.3515625 55.75 -3.125 57.625 C-9.04109903 63.9507678 -13.34320413 71.1715494 -13.4375 80 C-13.31715124 82.45073842 -13.08515485 84.66068069 -12.48828125 87.0390625 C-11.2542151 91.99507215 -11.50145919 96.69429788 -13.3125 101.4375 C-15 104 -15 104 -18 106 C-24.96083934 107.24715038 -31.81823534 105.15416024 -38 102 C-42.45008364 98.17435083 -44.00042497 94.85389486 -44.75 89.125 C-45.42732958 85.37237564 -46.06279508 83.50779439 -49 81.0625 C-52.79438725 77.84973415 -53.06245305 74.25641338 -53.67578125 69.48828125 C-53.93584508 66.87412908 -53.93584508 66.87412908 -55 64 C-56.50062903 52.45538805 -53.0509156 44.54538618 -46.7265625 35.09765625 C-43.05164253 32.76133835 -37.94255072 34.04803444 -33.76171875 34.28515625 C-28.30497664 33.87150913 -25.63685902 31.56769597 -21.78125 27.875 C-19.26024486 23.80600924 -18.47700954 19.6492178 -17.5 15 C-15.22070766 4.1537123 -15.22070766 4.1537123 -11 0 C-7.45260409 -1.77369795 -3.7704105 -0.83406051 0 0 Z " fill="#FBFAFA" transform="translate(757,413)"/>
<path d="M0 0 C5.87148826 2.1703537 12.13952745 7.37525137 15.1875 12.80859375 C16.3144438 17.63835287 16.3144438 17.63835287 15.1875 20.80859375 C12.20941295 24.25534391 8.75136189 26.98889052 5.1875 29.80859375 C3.6794893 31.0908989 2.17857979 32.38163989 0.6875 33.68359375 C0.0584375 34.21726562 -0.570625 34.7509375 -1.21875 35.30078125 C-3.04619102 36.91733004 -3.04619102 36.91733004 -4.8125 39.80859375 C-4.83407752 43.1185846 -4.61617079 46.37763409 -4.39453125 49.6796875 C-4.8125 52.80859375 -4.8125 52.80859375 -7.0703125 55.015625 C-7.97523438 55.60730469 -8.88015625 56.19898438 -9.8125 56.80859375 C-15.23502082 61.04967149 -20.03862339 64.93221323 -21.8125 71.80859375 C-22.1231904 75.21583181 -22.35976911 78.57804462 -22.39819336 81.99780273 C-22.52629496 87.94475657 -23.96999965 91.91629609 -28.125 96.18359375 C-31.40949844 98.16956955 -33.01721356 98.12991248 -36.8125 97.80859375 C-42.68161601 95.46898723 -48.58798442 92.41644693 -51.8125 86.80859375 C-53.33333878 83.17547889 -54.02351125 79.60409734 -54.6875 75.74609375 C-55.49443901 71.49365325 -56.63201438 68.88968919 -59.8125 65.80859375 C-60.4725 65.47859375 -61.1325 65.14859375 -61.8125 64.80859375 C-61.65265625 64.16535156 -61.4928125 63.52210938 -61.328125 62.859375 C-60.78657215 59.6551873 -60.69136271 56.61581368 -60.625 53.37475586 C-60.26221077 39.56750797 -60.26221077 39.56750797 -54.8125 33.80859375 C-53.76255859 32.58849609 -53.76255859 32.58849609 -52.69140625 31.34375 C-46.83565118 24.93500625 -46.83565118 24.93500625 -42.77734375 24.43359375 C-39.89633474 24.79799015 -38.32684312 25.46217066 -35.8125 26.80859375 C-33.46714403 27.27094342 -33.46714403 27.27094342 -31 27.30859375 C-30.18917969 27.36015625 -29.37835937 27.41171875 -28.54296875 27.46484375 C-24.29593207 26.44409674 -21.66689042 24.05297479 -18.8125 20.80859375 C-17.13615307 18.04503993 -15.89800453 15.17608563 -14.6875 12.18359375 C-9.00492297 -1.6543135 -9.00492297 -1.6543135 0 0 Z " fill="#FBFAFA" transform="translate(862.8125,476.19140625)"/>
<path d="M0 0 C5.787661 2.8938305 10.35365694 7.69214594 14 13 C14.75 16.75 14.75 16.75 14 20 C11.24063163 24.08129833 8.43246722 26.176379 4.125 28.5 C-3.55588502 32.52953477 -3.55588502 32.52953477 -9 39 C-8.94317436 40.60532426 -8.85573497 42.20965401 -8.75 43.8125 C-8.72837932 47.57449804 -8.75358376 48.65347717 -11 51.8125 C-13.96174727 53.97210739 -16.99785033 55.8604082 -20.13671875 57.74609375 C-23.93196355 60.30012641 -26.21710871 63.86660305 -28 68 C-28.55715236 71.00036863 -28.94584904 74.00161738 -29.33984375 77.02734375 C-30.04826487 80.21733469 -31.18227684 82.30637915 -33 85 C-33.391875 85.598125 -33.78375 86.19625 -34.1875 86.8125 C-36.59171382 88.38767457 -38.75501361 88.71376112 -41.60546875 88.61328125 C-47.77015316 87.03439797 -53.45496272 82.46198332 -56.796875 77.13671875 C-58.47536736 72.76064937 -58.41410192 68.76183138 -58.49609375 64.12109375 C-59.10164852 60.37040956 -60.63253131 58.89304674 -63 56 C-63.20703125 53.7109375 -63.20703125 53.7109375 -62.8125 51.375 C-62.24888744 47.66731346 -61.88329862 44.05843667 -61.6875 40.3125 C-60.73031348 30.7001903 -55.91644512 26.68977834 -48.75390625 20.72265625 C-45.76894598 18.85546833 -44.44014339 18.4391699 -41 19 C-40.0925 19.66 -39.185 20.32 -38.25 21 C-34.62219357 23.23249626 -32.57484263 23.49949848 -28.44140625 23.62890625 C-23.14416 22.26433562 -19.33418013 18.93689623 -16.48828125 14.3359375 C-15.74752194 13.02425788 -15.02226742 11.70370538 -14.3125 10.375 C-8.04042238 -1.12565913 -8.04042238 -1.12565913 0 0 Z " fill="#FBFAFA" transform="translate(910,516)"/>
<path d="M0 0 C4.5710802 0.65537174 7.39077688 1.92145938 11.2421875 4.46484375 C13.76891205 8.25493057 13.68559995 9.95681717 13.2421875 14.46484375 C11.86997662 18.22283036 9.84622687 21.5543649 7.640625 24.87890625 C4.35936084 29.90188408 2.5733263 33.4953425 2.73828125 39.5546875 C3.36422592 41.92745452 4.47723133 42.81019734 6.2421875 44.46484375 C7.24997366 49.05586961 5.68556449 51.74099784 3.3671875 55.58984375 C2.83351563 56.41742188 2.29984375 57.245 1.75 58.09765625 C1.25242187 58.87882812 0.75484375 59.66 0.2421875 60.46484375 C-0.34175781 61.3465625 -0.34175781 61.3465625 -0.9375 62.24609375 C-2.2182944 65.71033764 -2.04536831 69.19693036 -2.0078125 72.83984375 C-2.01554688 73.58234375 -2.02328125 74.32484375 -2.03125 75.08984375 C-2.01521375 79.62810389 -1.36431505 83.17041865 0.2421875 87.46484375 C0.68253041 92.48475296 0.34884666 95.43769298 -2.7578125 99.46484375 C-7.24919638 102.45909967 -11.4928038 102.04665235 -16.7578125 101.46484375 C-20.93303904 100.20478354 -23.86894469 98.59891647 -26.5703125 95.15234375 C-27.49460568 93.06052233 -28.38340189 90.95300272 -29.2578125 88.83984375 C-31.08728409 84.72353267 -32.90625148 83.17101631 -36.3203125 80.33984375 C-40.72921462 75.13960022 -41.23072829 68.44259745 -40.98828125 61.76953125 C-39.96923156 51.57903436 -35.04823384 44.46719373 -27.7578125 37.46484375 C-25.07421875 36.265625 -25.07421875 36.265625 -22.7578125 35.46484375 C-16.53327568 28.88461912 -16.27017447 22.11497455 -15.81054688 13.50195312 C-14.96943237 2.96720208 -10.58121196 -0.4918704 0 0 Z " fill="#FAFAF9" transform="translate(695.7578125,396.53515625)"/>
<path d="M0 0 C5.23311494 2.36003223 7.1643578 5.37260422 9.19140625 10.51171875 C16.74273316 33.74937692 13.75314902 60.56952165 9 84 C8.85046875 84.7542627 8.7009375 85.50852539 8.546875 86.28564453 C3.41235389 111.38180502 -7.46124725 138.57570054 -23 159 C-23.56976562 159.77601563 -24.13953125 160.55203125 -24.7265625 161.3515625 C-30.7659464 169.37649728 -37.19783052 177.9218253 -46 183 C-48.9375 183.3125 -48.9375 183.3125 -51 183 C-51.51234787 179.38659922 -51.04925049 178.07523303 -49.015625 174.96875 C-48.10070448 173.80698926 -47.17825709 172.65113264 -46.25 171.5 C-31.57372896 152.31219671 -20.13854664 129.38228219 -14 106 C-13.59004465 104.55426047 -13.17845931 103.10898257 -12.765625 101.6640625 C-4.86471857 73.53310658 -3.2048167 45.14459079 -10.67871094 16.70556641 C-11.71160781 12.70968085 -12.37735631 9.1269603 -12 5 C-8.52091943 0.15037254 -5.87617219 -0.92781666 0 0 Z " fill="#F9F8F8" transform="translate(849,618)"/>
<path d="M0 0 C7.1843387 1.79608468 10.58431932 5.31640159 14.5625 11.3125 C18.6524892 18.17194377 21.02551564 24.91007003 19.75 32.9375 C17.37927245 39.73442633 12.44924626 42.80186027 6.37109375 46.19921875 C2.34756587 48.86757926 -0.49923872 52.42660998 -2.25 56.9375 C-3.009094 63.20002554 -1.90895544 69.20135321 -0.70703125 75.33203125 C0.38255614 81.54361067 0.34013428 86.49039971 -3.25 91.9375 C-5.41355623 94.35559226 -6.99858283 95.69465073 -10.22265625 96.3203125 C-17.07766993 96.68301164 -23.7439547 94.78063757 -29.109375 90.4296875 C-34.07164767 85.14806065 -35.99711933 79.12379648 -36.5625 72 C-35.98144509 59.29258169 -31.52862327 51.2490708 -23.49609375 41.66015625 C-15.56343146 32.04438997 -11.33638765 22.89812752 -10.5859375 10.390625 C-10.07170287 6.63551627 -8.72423727 4.77559569 -6.25 1.9375 C-3.25 -0.0625 -3.25 -0.0625 0 0 Z " fill="#625138" transform="translate(625.25,377.0625)"/>
<path d="M0 0 C0 0.66 0 1.32 0 2 C0.88945313 2.38285156 0.88945313 2.38285156 1.796875 2.7734375 C5.64204547 4.91418844 7.90827324 8.18528036 10 12 C10.89523983 15.20990597 10.6746307 16.57062729 10 20 C5.98668676 23.88054197 1.84844945 26.3031962 -3.1875 28.625 C-8.75374471 30.95384858 -8.75374471 30.95384858 -13 35 C-13.01578893 37.25082695 -13.01578893 37.25082695 -12.75 39.6875 C-12.90234375 42.37109375 -12.90234375 42.37109375 -14 45 C-17.05982452 47.09008422 -19.97660112 48.6734525 -23.36425781 50.13549805 C-28.16044158 52.24715443 -30.50489734 54.1733087 -33 59 C-33.90992341 61.78164533 -33.90992341 61.78164533 -34.4375 64.5625 C-35.63805746 69.30018375 -36.79568153 72.1645294 -41 75 C-44.29995202 75.80665494 -46.06162837 75.55785085 -48.984375 73.8203125 C-51.07894609 72.30056731 -53.03851699 70.68703683 -55 69 C-55.969375 68.236875 -56.93875 67.47375 -57.9375 66.6875 C-60.84420559 62.89997453 -60.79655697 59.65658481 -61 55 C-61.13082043 53.37372254 -61.27620387 51.74853809 -61.4375 50.125 C-61.49808594 49.40570312 -61.55867187 48.68640625 -61.62109375 47.9453125 C-61.9316646 45.68499557 -61.9316646 45.68499557 -64 43 C-63.3873736 35.63072588 -62.20078886 24.01269595 -56.25 18.9375 C-55.1775 18.298125 -54.105 17.65875 -53 17 C-52.34386719 16.54109375 -51.68773437 16.0821875 -51.01171875 15.609375 C-48.20825219 13.68760131 -45.73045607 12.19597602 -42.4375 11.3125 C-39.67987137 12.09029269 -38.69588977 13.06686343 -36.625 15 C-33.94306137 17.46086776 -33.20340705 17.9678831 -29.4375 18.5625 C-22.03325147 17.3508957 -18.32769792 13.78661025 -14 8 C-13.278125 6.906875 -12.55625 5.81375 -11.8125 4.6875 C-8.45853228 -0.28562454 -5.67093751 -0.21399764 0 0 Z " fill="#FAFAF9" transform="translate(950,562)"/>
<path d="M0 0 C5.29698929 0.84751829 8.43531364 3.49843415 11.5625 7.6875 C15.89798126 12.93454398 21.98882951 15.90362914 27.82958984 19.20068359 C30.2882227 20.59239217 32.73247872 22.00734308 35.17578125 23.42578125 C40.46996935 26.49039956 45.78878514 29.50920709 51.125 32.5 C52.31488525 33.16708984 52.31488525 33.16708984 53.52880859 33.84765625 C61.36859125 38.21031769 68.92584898 42.19224014 77.609375 44.6484375 C80.4768119 45.6190916 82.6962591 46.6837242 85.125 48.5 C85.98046875 50.65625 85.98046875 50.65625 86.3125 53 C86.81902861 56.33974908 87.17042678 57.56814018 89.125 60.5 C90.01517396 66.46532157 89.0069738 71.26975125 86.125 76.5 C83.125 78.5 83.125 78.5 79.8125 78.375 C74.70615101 77.16332397 70.4762998 74.59603309 67.125 70.5 C67.125 69.84 67.125 69.18 67.125 68.5 C66.55773193 68.23525879 65.99046387 67.97051758 65.40600586 67.69775391 C62.97321786 66.42029935 60.85374199 64.94780119 58.62890625 63.3359375 C52.93945384 59.30968397 47.04693579 55.69343688 41.0625 52.125 C39.97283936 51.47378174 38.88317871 50.82256348 37.76049805 50.15161133 C31.38730598 46.36824722 24.98054718 42.6697444 18.4375 39.1875 C17.77419678 38.83316895 17.11089355 38.47883789 16.42749023 38.11376953 C9.11668046 34.3076214 3.31491295 33.26045323 -4.8515625 33.13671875 C-7.875 32.5 -7.875 32.5 -10.2421875 30.11328125 C-12.10163479 27.13727589 -12.56082178 25.92910889 -11.875 22.5 C-11.215 21.75878906 -10.555 21.01757812 -9.875 20.25390625 C-6.89596318 16.15191219 -7.3893227 12.48614195 -7.34375 7.55859375 C-6.63267451 2.91882615 -4.61622066 0.80282098 0 0 Z " fill="#FAF9F9" transform="translate(447.875,777.5)"/>
<path d="M0 0 C4.17073823 0.65423345 6.46663413 2.41263915 9.1875 5.5 C10.09694308 6.91615699 10.98353297 8.34714985 11.8515625 9.7890625 C15.06732082 14.67849935 18.75741032 17.68138538 23.5625 20.9375 C24.35414551 21.49042725 25.14579102 22.04335449 25.96142578 22.61303711 C32.83498828 27.36907012 39.86024012 31.8618596 47.01708984 36.17724609 C49.41952512 37.64140743 51.79719729 39.14195682 54.17578125 40.64453125 C66.22651931 48.18123582 66.22651931 48.18123582 79.65625 52.55859375 C83.03277298 53.8143685 84.28067795 55.48829041 86.1875 58.5 C86.4375 62.3125 86.4375 62.3125 86.1875 65.5 C85.42824219 65.87511719 84.66898438 66.25023437 83.88671875 66.63671875 C82.89285156 67.14847656 81.89898438 67.66023437 80.875 68.1875 C79.39580078 68.93580078 79.39580078 68.93580078 77.88671875 69.69921875 C74.94028791 71.66492731 73.7533251 73.36300569 72.1875 76.5 C64.41381613 75.52828952 58.88664737 71.36652608 53 66.5625 C44.81432456 59.92239527 35.93584159 54.55958189 26.90869141 49.14941406 C24.21264124 47.51523903 21.5478003 45.83884423 18.88671875 44.1484375 C10.43351849 38.83342711 2.91791557 34.36112979 -6.96484375 32.34375 C-10.34192217 31.34313417 -12.26294758 29.90489696 -14.8125 27.5 C-16.125 24.75 -16.125 24.75 -15.8125 21.5 C-13.90908639 19.42679832 -11.84043733 17.60622739 -9.75 15.72265625 C-7.01626921 12.58658202 -6.65017996 9.7557727 -6.26171875 5.69921875 C-5.47930827 1.86880916 -3.75160174 0.66695142 0 0 Z " fill="#F9F9F8" transform="translate(463.8125,741.5)"/>
<path d="M0 0 C4.37593114 3.5803073 7.55814118 7.3488471 8.5 13 C7.97913998 16.12516011 7.25388688 17.66246349 4.890625 19.78125 C1.49104169 21.97271693 -2.28070964 23.29735343 -6.0625 24.69140625 C-9.24050754 26.10714099 -11.50839109 27.57158407 -14 30 C-14.62200518 32.01161362 -14.62200518 32.01161362 -14.5 34.0625 C-15 38 -15 38 -17.125 39.875 C-20 41 -20 41 -23.5 41.9375 C-27.41593003 43.12626447 -29.22166397 43.99639348 -32 47 C-32.71603621 48.64606026 -33.37840714 50.3160034 -34 52 C-35.57766995 56.25530899 -36.73972708 58.9194016 -41 61 C-47.75269641 61 -51.5303164 57.95302872 -56.6328125 53.91796875 C-59.84365098 49.96005399 -59.74191247 47.01611472 -59.75 42.0625 C-59.7835223 40.49082005 -59.81992206 38.91919851 -59.859375 37.34765625 C-59.87145996 36.59806641 -59.88354492 35.84847656 -59.89599609 35.07617188 C-59.95703049 32.80363836 -59.95703049 32.80363836 -60.6484375 29.84765625 C-61.10542805 26.1460328 -60.22695061 23.8317839 -58.875 20.375 C-58.45992187 19.26898437 -58.04484375 18.16296875 -57.6171875 17.0234375 C-54.34885823 10.91308279 -48.38266775 8.10032942 -42 6 C-38.07774853 5.90878485 -37.15773476 6.85301988 -34.25 9.5625 C-31.69358009 11.82901662 -29.91679329 12.42491101 -26.5 12.5625 C-21.013071 12.2046568 -17.85665585 10.01725266 -14.1484375 5.98828125 C-12.91794443 4.57802479 -11.70561105 3.15163143 -10.515625 1.70703125 C-7.29112505 -1.92468648 -4.4852787 -1.06430342 0 0 Z " fill="#FAF9F9" transform="translate(981,609)"/>
<path d="M0 0 C4.72939164 2.68715434 6.28314074 5.93526519 8 11 C11.37634935 28.5428501 10.02116723 47.93277795 5 65 C4.73687012 65.92200195 4.47374023 66.84400391 4.20263672 67.79394531 C-2.79945274 91.84752936 -14.28046362 119.52030908 -36 134 C-38.6875 133.625 -38.6875 133.625 -41 133 C-40.45103886 129.0817899 -39.3969034 126.81124216 -37 123.6875 C-28.79784475 112.33585187 -22.75719833 100.1309802 -18 87 C-17.55914063 85.845 -17.11828125 84.69 -16.6640625 83.5 C-8.85009222 61.90502758 -6.29392371 38.33269576 -10.5390625 15.69580078 C-11.41031265 10.60027951 -12.20181358 5.97097428 -9.4375 1.4375 C-6.02983728 -0.57214724 -3.89581737 -0.54678139 0 0 Z " fill="#F8F8F7" transform="translate(885,649)"/>
<path d="M0 0 C4.37790549 0.83029242 5.82151329 2.06635628 8.453125 5.546875 C10.37125209 9.05065381 11.34419456 12.71725247 10.625 16.6875 C7.04598966 21.41004779 2.13405767 22.5055263 -3.28125 24.34375 C-6.49923976 25.74146273 -8.19606882 26.96383603 -10.375 29.6875 C-10.705 30.88375 -11.035 32.08 -11.375 33.3125 C-12.375 36.6875 -12.375 36.6875 -14.15234375 37.83203125 C-16.4123879 38.70189007 -18.56481736 39.27225172 -20.9375 39.75 C-23.51520029 40.27597257 -25.87007652 40.85252551 -28.375 41.6875 C-29.38416033 43.45341887 -29.38416033 43.45341887 -30.375 45.6875 C-34.04166667 51.35416667 -34.04166667 51.35416667 -35.375 52.6875 C-39.01974424 53.28256028 -41.42238889 53.32657184 -44.546875 51.23046875 C-52.15281274 44.63773074 -52.15281274 44.63773074 -52.60205078 40.69458008 C-52.59157715 39.95618896 -52.58110352 39.21779785 -52.5703125 38.45703125 C-52.56386719 37.65458984 -52.55742188 36.85214844 -52.55078125 36.02539062 C-52.53402344 35.19201172 -52.51726563 34.35863281 -52.5 33.5 C-52.49097656 32.65501953 -52.48195313 31.81003906 -52.47265625 30.93945312 C-52.44910703 28.85534757 -52.41323647 26.77138783 -52.375 24.6875 C-53.035 24.6875 -53.695 24.6875 -54.375 24.6875 C-53.72501982 21.17760705 -52.22108407 18.71507788 -50.375 15.6875 C-49.941875 14.4190625 -49.941875 14.4190625 -49.5 13.125 C-47.57969748 8.96434454 -44.56454359 7.19368876 -40.4375 5.4375 C-37.0923818 4.61828738 -34.78730561 4.10668202 -31.375 4.6875 C-29.38698048 6.52217366 -27.99123324 8.48762699 -26.375 10.6875 C-23.05578833 12.34710583 -19.93377918 12.43926937 -16.375 11.6875 C-12.18205879 9.18957758 -8.65081302 6.04820552 -5.3203125 2.49609375 C-3.375 0.6875 -3.375 0.6875 0 0 Z " fill="#FAF9F9" transform="translate(1003.375,651.3125)"/>
<path d="M0 0 C4 4 4 4 4 7 C7.78763561 8.2625452 11.08551533 8.73565315 15 8 C19.11069785 5.87264841 22.72876793 3.27123207 26 0 C28.8125 -0.4375 28.8125 -0.4375 32 0 C35.25084343 2.74515668 37.7461512 4.91843982 38.2734375 9.2421875 C38.54349794 16.24298501 38.54349794 16.24298501 36.25 19.4375 C32.21613246 21.37685939 28.22516401 22.2531842 23.83984375 23.09375 C20.5506419 24.14339901 19.15533161 25.33549601 17 28 C15.79950593 31.10007201 15.79950593 31.10007201 15 34 C13.25040671 35.74959329 10.62715497 35.16882885 8.25 35.25 C3.18436238 35.61979638 3.18436238 35.61979638 -1.0625 38.375 C-1.701875 39.24125 -2.34125 40.1075 -3 41 C-5.0388703 43.68760176 -5.76318234 43.95356517 -9.1875 44.625 C-14.51021628 43.75242356 -17.47880408 40.98259401 -21 37 C-23.06085395 33.52769302 -23.33736253 31.04835038 -23 27 C-22.6596875 26.38511719 -22.319375 25.77023437 -21.96875 25.13671875 C-20.75579425 22.46136876 -20.99812992 20.72159943 -21.25 17.8125 C-21.32963989 12.40422733 -20.16670353 9.11997582 -16.91015625 4.81640625 C-12.58285317 0.70148614 -5.85157613 -1.08866533 0 0 Z " fill="#F9F9F8" transform="translate(996,696)"/>
<path d="M0 0 C1.01835937 0.020625 2.03671875 0.04125 3.0859375 0.0625 C7.46485672 0.25033568 10.34198389 0.62583398 14.1875 2.8125 C16.99347132 7.74713921 16.84078602 12.45982068 16 18 C14.92678036 20.46265577 13.76245014 21.91710437 12 24 C11.505 25.485 11.505 25.485 11 27 C8.05124123 28.47437939 6.30820503 28.36089509 3 28 C1.58069992 27.18542116 0.18647623 26.3263986 -1.1875 25.4375 C-5.73412661 22.76750115 -9.0409578 22.45285061 -14.22265625 23.23046875 C-21.15752572 25.15194454 -27.15865737 28.91759286 -31.0390625 35.0546875 C-32.77472407 38.56834385 -33.94906777 42.23202346 -35 46 C-36.65 45.67 -38.3 45.34 -40 45 C-43.42661281 36.37227846 -44.34219073 29.02432549 -41.03515625 20.1953125 C-37.2437138 12.15459305 -31.21736412 6.2281051 -23.0546875 2.7421875 C-15.23079032 0.04624221 -8.21174675 -0.48903703 0 0 Z " fill="#F9F9F8" transform="translate(417,774)"/>
<path d="M0 0 C2.4477197 1.89947479 3.16001627 3.3264332 4.5625 6.1875 C6.65062525 9.16726821 6.65062525 9.16726821 9.3046875 9.4921875 C14.52696944 9.63165497 17.62114613 8.91923592 22 6 C25.0625 5.5 25.0625 5.5 28 6 C30.79168197 8.20395945 31.83968239 9.88498201 32.34765625 13.41796875 C32.47364742 17.1264915 32.5452419 19.89815698 30.875 23.2734375 C28.18953596 25.74630231 26.16000806 25.50124844 22.5625 25.5625 C18.00480802 25.65064649 15.32348558 25.73011903 12 29 C10.93753473 30.96752828 9.92862192 32.96587579 9 35 C8 36 8 36 5.5 36.125 C3 36 3 36 2 35 C-0.83151973 34.58190799 -0.83151973 34.58190799 -4 35 C-4.825 35.66 -5.65 36.32 -6.5 37 C-9 39 -9 39 -12 39.5625 C-16.01376143 38.80991973 -17.41621159 37.08619172 -20 34 C-22.15942819 30.76085771 -22.27232978 29.75140267 -22.25 26 C-22.25515625 25.13375 -22.2603125 24.2675 -22.265625 23.375 C-22 21 -22 21 -20 18 C-19.90536652 16.2520639 -19.87011037 14.50048913 -19.875 12.75 C-19.52304057 8.33290911 -18.79278028 5.96096454 -15.625 2.8125 C-10.86669207 -0.77559115 -5.76121732 -1.28440709 0 0 Z " fill="#F9F8F8" transform="translate(1013,739)"/>
<path d="M0 0 C4.05338911 2.43203347 5.5448832 4.58443159 7 9 C8.46717992 21.87049683 7.69116988 34.91297924 3 47 C2.61457031 48.09183594 2.22914063 49.18367187 1.83203125 50.30859375 C-3.59818583 65.22851058 -11.83376196 83.26658727 -26 92 C-28.48472245 92.77144716 -30.37021391 92.94521279 -33 93 C-33.35716965 88.75861041 -32.60637465 86.94114632 -30 83.625 C-22.02286218 72.72506471 -16.56969008 61.02125585 -13 48 C-12.6803125 46.85144531 -12.360625 45.70289063 -12.03125 44.51953125 C-9.5855892 33.95563531 -9.80723353 23.55785074 -10.11010742 12.76318359 C-10.13564697 11.5458252 -10.16118652 10.3284668 -10.1875 9.07421875 C-10.22230469 7.97682373 -10.25710938 6.87942871 -10.29296875 5.7487793 C-10 3 -10 3 -8.69921875 1.14770508 C-5.79348527 -0.81491749 -3.38900769 -0.40901817 0 0 Z " fill="#F7F6F5" transform="translate(916,682)"/>
<path d="M0 0 C7.3482239 4.08234661 7.3482239 4.08234661 8.67578125 7.98828125 C8.88589844 8.75527344 9.09601562 9.52226563 9.3125 10.3125 C11.08881736 15.75464877 13.4634193 18.59554351 18.546875 21.41015625 C21.01040609 22.65931961 23.48732859 23.8534412 26 25 C26.46473805 28.31955751 26.78055938 30.88094562 24.79296875 33.73046875 C20.67740653 37.63398795 16.87302314 38.75866605 11.34375 39.56640625 C8.78273458 39.91891415 8.78273458 39.91891415 5.9375 41.625 C1.91372699 43.50846822 -1.62797491 43.74879988 -6 43 C-8.87029869 41.20606332 -10.49131638 40.01736724 -12 37 C-12.125 33.4375 -12.125 33.4375 -12 30 C-11.67 29.67 -11.34 29.34 -11 29 C-10.58545636 24.77165483 -10.53504657 22.66837056 -13 19.125 C-15.63039722 15.01500434 -16.01220793 11.76333143 -15 7 C-11.45785297 0.72608643 -7.0018923 -0.97610023 0 0 Z " fill="#F9F9F8" transform="translate(557,817)"/>
<path d="M0 0 C7.0335441 6.23472053 14.1164406 18.17439193 15.1796875 27.56640625 C15.1875 30.0625 15.1875 30.0625 14.875 33.875 C12.921875 34.10286458 10.96875 34.33072917 9.015625 34.55859375 C6.8638692 34.79513468 6.8638692 34.79513468 4.9140625 35.640625 C2.875 35.875 2.875 35.875 0.5078125 34.42578125 C-5.2170882 29.31617362 -8.6008558 24.63340454 -11.78125 17.671875 C-15.50280175 9.9258545 -21.45710734 5.52424526 -29.125 1.875 C-31.80284121 1.02547796 -34.44547941 0.30210428 -37.19140625 -0.2890625 C-37.82949219 -0.56492187 -38.46757812 -0.84078125 -39.125 -1.125 C-39.90234375 -3.2109375 -39.90234375 -3.2109375 -40.125 -5.125 C-27.7588563 -16.07787013 -11.73292434 -7.97838855 0 0 Z " fill="#F8F7F6" transform="translate(450.125,700.125)"/>
<path d="M0 0 C2.19740101 2.26606979 2.5150731 3.01402818 2.875 6.0625 C2.28324086 15.68637226 -7.77667356 23.2195238 -14.546875 29.3347168 C-19.8306264 33.93525353 -25.05788721 38.13735704 -32.25 38.6875 C-36 38.0625 -36 38.0625 -39.0625 36.375 C-42.20957035 30.99452489 -41.49559805 25.98169791 -40 20.0625 C-34.66206039 9.73840476 -24.32719697 4.11549874 -14 -0.1875 C-9.09684841 -1.4132879 -4.905447 -1.53295219 0 0 Z " fill="#625239" transform="translate(316,398.9375)"/>
<path d="M0 0 C3.49919405 2.62636138 3.87927868 5.89068848 5 10 C7.67343986 12.67343986 9.27699847 12.32100954 13 12.5 C18.77777778 12.77777778 18.77777778 12.77777778 21 15 C21.30078125 17.05859375 21.30078125 17.05859375 21.3125 19.4375 C21.32925781 20.21996094 21.34601563 21.00242187 21.36328125 21.80859375 C21 24 21 24 19.8203125 25.765625 C17.34343538 27.44522408 15.53186528 27.30041303 12.5625 27.3125 C9.63452126 27.41253834 9.63452126 27.41253834 7 28 C4.66585353 30.95849927 4.66585353 30.95849927 3 34 C-0.21908202 34.45067148 -2.08944799 34.455276 -5 33 C-7.49558422 32.76522378 -9.98970179 32.61849453 -12.4921875 32.4765625 C-15.42489527 31.91925666 -16.84273278 31.04118109 -19 29 C-20.2385576 25.28432719 -20.56107071 21.8610524 -20 18 C-18.69593116 15.98079663 -17.36176581 13.98075027 -16 12 C-15.65309849 9.98098924 -15.65309849 9.98098924 -15.5625 7.875 C-15 4 -15 4 -13.0625 1.5 C-8.80166361 -0.58694028 -4.66851987 -0.87831475 0 0 Z " fill="#F9F8F8" transform="translate(1020,782)"/>
<path d="M0 0 C0.66 0.66 1.32 1.32 2 2 C1.42748109 6.21175721 -0.94233039 9.64681019 -3.0625 13.25 C-3.62807617 14.22453125 -3.62807617 14.22453125 -4.20507812 15.21875 C-5.13234115 16.81505091 -6.06558456 18.40787529 -7 20 C-10.89294039 19.32769944 -12.89590608 18.42507337 -16 16 C-23.84218589 12.29934328 -31.94366414 13.71737151 -40 16 C-42.32965039 16.40457669 -44.65281663 16.70660208 -47 17 C-46.63951316 11.11204821 -45.24834148 7.20028332 -41 3 C-29.30315943 -5.42248229 -12.85529328 -7.70755002 0 0 Z " fill="#F7F7F6" transform="translate(425,721)"/>
<path d="M0 0 C6.1619752 0.36638771 10.30344195 4.82882147 14.4921875 8.93359375 C17.63457061 12.77591578 18.16278153 15.06537852 17.71484375 19.90625 C16.54734813 23.3258 14.33332269 24.75000798 11.5 26.875 C8.85411657 28.84275825 8.85411657 28.84275825 7.625 31.75 C6 34 6 34 2.5625 34.5625 C-1.59125671 33.90664368 -2.36898409 33.15508005 -5 30 C-6.30078125 27.37890625 -6.30078125 27.37890625 -7.3125 24.5625 C-7.65925781 23.63566406 -8.00601562 22.70882812 -8.36328125 21.75390625 C-9.25422314 17.90044592 -8.75640512 15.39157458 -6.87890625 11.9375 C-6.44449219 11.298125 -6.01007813 10.65875 -5.5625 10 C-3.64481825 7.07650247 -2.19971649 4.29922035 -1 1 C-0.67 0.67 -0.34 0.34 0 0 Z " fill="#F9F8F7" transform="translate(432,730)"/>
<path d="M0 0 C1.45212891 0.30357422 1.45212891 0.30357422 2.93359375 0.61328125 C4.38958984 0.89751953 4.38958984 0.89751953 5.875 1.1875 C8.37109375 1.92578125 8.37109375 1.92578125 10.37109375 3.92578125 C11.09683078 10.0636636 9.30653305 13.99180374 6.49609375 19.23828125 C6.13128906 19.95306641 5.76648438 20.66785156 5.390625 21.40429688 C3.92688485 24.22798469 2.63293291 26.66394209 0.37109375 28.92578125 C-2.19140625 28.67578125 -2.19140625 28.67578125 -4.62890625 27.92578125 C-6.62669337 23.930207 -5.8576713 18.8812613 -5.87890625 14.48828125 C-5.89953125 13.42544922 -5.92015625 12.36261719 -5.94140625 11.26757812 C-5.9465625 10.24857422 -5.95171875 9.22957031 -5.95703125 8.1796875 C-5.96637695 7.24455322 -5.97572266 6.30941895 -5.98535156 5.34594727 C-5.62890625 2.92578125 -5.62890625 2.92578125 -4.27270508 1.09277344 C-2.62890625 -0.07421875 -2.62890625 -0.07421875 0 0 Z " fill="#F5F4F3" transform="translate(1011.62890625,823.07421875)"/>
<path d="M0 0 C5.9027607 0.62795327 10.11345602 2.03781867 16 4 C15.34 12.58 14.68 21.16 14 30 C8.45202398 28.61300599 6.91754934 25.72736604 4 21 C0.23020117 13.99233715 -0.53989214 7.88842403 0 0 Z " fill="#F2F1EF" transform="translate(280,489)"/>
<path d="M0 0 C1.72985242 0.11512153 3.45888751 0.24255677 5.1875 0.375 C6.15042969 0.44460938 7.11335938 0.51421875 8.10546875 0.5859375 C11.01508938 1.00215853 13.32890774 1.79874096 16 3 C15.84660156 3.78632813 15.69320313 4.57265625 15.53515625 5.3828125 C14.87005679 9.87830226 14.64586315 14.33883176 14.4375 18.875 C14.39431641 19.75414062 14.35113281 20.63328125 14.30664062 21.5390625 C14.20130661 23.69255797 14.10022351 25.84626064 14 28 C10.98423224 27.67797734 9.42972035 27.45249355 7.3046875 25.21484375 C1.8769627 16.56904168 -0.57022702 10.30632539 0 0 Z " fill="#F5F4F3" transform="translate(305,496)"/>
<path d="M0 0 C1.54125475 -0.05482724 3.08309906 -0.09316134 4.625 -0.125 C5.48351562 -0.14820313 6.34203125 -0.17140625 7.2265625 -0.1953125 C10 0 10 0 16 2 C15.67 9.59 15.34 17.18 15 25 C13.68 25.33 12.36 25.66 11 26 C4.94247853 19.80160593 -0.29424073 11.73355999 -0.3125 2.75 C-0.209375 1.8425 -0.10625 0.935 0 0 Z " fill="#F1F0EE" transform="translate(330,501)"/>
<path d="M0 0 C5.77378925 0.4811491 9.95859836 2.18467181 15 5 C14.84660156 5.62261719 14.69320313 6.24523437 14.53515625 6.88671875 C13.79669205 11.18274772 13.63537838 15.46241952 13.4375 19.8125 C13.39431641 20.69615234 13.35113281 21.57980469 13.30664062 22.49023438 C13.20108464 24.65999623 13.10008929 26.8299791 13 29 C10.17891723 28.42990619 9.13302939 28.12887222 7 26.0625 C2.74819898 19.55192969 -0.17756393 12.07434694 -0.0625 4.25 C-0.05347656 3.45078125 -0.04445313 2.6515625 -0.03515625 1.828125 C-0.02355469 1.22484375 -0.01195312 0.6215625 0 0 Z " fill="#F5F5F4" transform="translate(257,481)"/>
<path d="M0 0 C4.95 0 9.9 0 15 0 C14.67 7.59 14.34 15.18 14 23 C9.13829089 22.02765818 8.05946447 21.69261157 5.203125 17.94140625 C1.52021468 11.99852823 0 7.0093884 0 0 Z " fill="#F6F5F4" transform="translate(356,504)"/>
<path d="M0 0 C3 2.0625 3 2.0625 5 5 C5.69151325 9.30274909 5.51557405 11.20945312 3.125 14.875 C0.62545713 17.37454287 -0.32175958 17.90956794 -3.8125 18.375 C-7 18 -7 18 -9.875 16.0625 C-12.37728329 12.4562682 -12.68948261 10.39107866 -12.41015625 6.09375 C-12 4 -12 4 -10.5 1.4375 C-6.99753422 -0.57641782 -3.87856287 -0.87555677 0 0 Z " fill="#F7F6F5" transform="translate(860,385)"/>
<path d="M0 0 C0.99 0 1.98 0 3 0 C3.47050781 1.16917969 3.94101562 2.33835937 4.42578125 3.54296875 C5.05447072 5.09123387 5.68338906 6.63940608 6.3125 8.1875 C6.7755957 9.34088867 6.7755957 9.34088867 7.24804688 10.51757812 C8.90242296 14.57515315 10.70731398 18.25410376 13 22 C13 22.66 13 23.32 13 24 C8.05 24 3.1 24 -2 24 C-4.54107701 15.10623045 -5.29706557 9.25036589 -1 1 C-0.67 0.67 -0.34 0.34 0 0 Z " fill="#F1EFED" transform="translate(317,565)"/>
<path d="M0 0 C2.96136081 1.03522147 3.86627732 1.74382778 5.34375 4.57421875 C5.7253125 5.60160156 6.106875 6.62898437 6.5 7.6875 C7.9118797 11.32866344 9.30612817 14.77159409 11.3125 18.125 C13 21 13 21 13 23 C9.68929162 24.00109515 6.69915231 24.10356134 3.25 24.0625 C2.26515625 24.05347656 1.2803125 24.04445313 0.265625 24.03515625 C-0.48203125 24.02355469 -1.2296875 24.01195312 -2 24 C-3.26978988 20.06774747 -3.22036976 16.08897283 -3.25 12 C-3.270625 11.2884375 -3.29125 10.576875 -3.3125 9.84375 C-3.33727723 6.52360109 -3.22536967 4.37174379 -1.484375 1.5 C-0.99453125 1.005 -0.5046875 0.51 0 0 Z " fill="#F1F0EE" transform="translate(340,565)"/>
<path d="M0 0 C1.32 0 2.64 0 4 0 C4.15855469 0.76183594 4.31710937 1.52367187 4.48046875 2.30859375 C5.8921701 8.55595718 7.58492473 13.73187191 11.01171875 19.16015625 C12 21 12 21 12 24 C10.41705218 24.05437607 8.83355744 24.09296271 7.25 24.125 C6.36828125 24.14820313 5.4865625 24.17140625 4.578125 24.1953125 C1.8065481 23.98534455 0.25817449 23.61734119 -2 22 C-3.40076489 18.7141632 -3.20103516 15.09204898 -3.25 11.5625 C-3.27578125 10.45003906 -3.3015625 9.33757813 -3.328125 8.19140625 C-2.96192092 4.62963557 -2.28348349 2.75149474 0 0 Z " fill="#F1F0ED" transform="translate(295,564)"/>
<path d="M0 0 C3.79999807 1.44915181 4.85909717 3.09123017 6.5 6.75 C7.93266119 9.8237901 9.34317912 12.67488378 11.3125 15.4375 C13 18 13 18 13 21 C4.57142857 23.28571429 4.57142857 23.28571429 0 23 C-2.70438364 16.91513681 -3.89287457 11.67366504 -3 5 C-1.5 1.875 -1.5 1.875 0 0 Z " fill="#F2F1EF" transform="translate(362,563)"/>
<path d="M0 0 C4.62 0 9.24 0 14 0 C13.67 6.93 13.34 13.86 13 21 C7.07282289 19.81456458 6.50171476 18.69480183 3.29296875 14.05078125 C0.00419889 8.83445444 0 6.56140109 0 0 Z " fill="#F5F4F2" transform="translate(381,503)"/>
<path d="M0 0 C0.99 0 1.98 0 3 0 C4.68359375 2.484375 4.68359375 2.484375 6.4375 5.75 C8.60412132 9.76333881 10.60828376 12.92881958 14 16 C13.67 16.99 13.34 17.98 13 19 C11.07421875 19.94921875 11.07421875 19.94921875 8.6875 20.6875 C7.90761719 20.93886719 7.12773437 21.19023438 6.32421875 21.44921875 C4 22 4 22 0 22 C-2.09659157 17.69865935 -2.26862339 14.06612125 -2.25 9.3125 C-2.25773437 8.63638672 -2.26546875 7.96027344 -2.2734375 7.26367188 C-2.2534965 2.2534965 -2.2534965 2.2534965 0 0 Z " fill="#F6F5F4" transform="translate(384,559)"/>
<path d="M0 0 C0 6.27 0 12.54 0 19 C-6 18 -6 18 -7.828125 16.109375 C-8.29734375 15.33078125 -8.7665625 14.5521875 -9.25 13.75 C-9.72953125 12.98171875 -10.2090625 12.2134375 -10.703125 11.421875 C-12.60588548 7.86852712 -14 5.06779561 -14 1 C-9.1706254 0.21153068 -4.96762993 0 0 0 Z " fill="#F4F3F2" transform="translate(418,500)"/>
<path d="M0 0 C3.61032268 1.20344089 3.98859218 2.15392526 5.9375 5.3125 C8.03337301 8.59481484 10.06113776 11.40023725 13 14 C12 17 12 17 8.75 18.6875 C5.45873369 19.83944321 3.4127883 20.31025348 0 20 C-1.89849757 15.98452696 -2.27018226 12.7374599 -2.25 8.3125 C-2.25515625 7.17425781 -2.2603125 6.03601563 -2.265625 4.86328125 C-2 2 -2 2 0 0 Z " fill="#F6F5F4" transform="translate(406,553)"/>
<path d="M0 0 C3.34871805 1.37763717 4.66730527 2.6453924 6.375 5.8125 C8.70447695 9.77332319 11.38838522 12.12544946 15 15 C16.17618465 16.17881006 17.32223426 17.38839748 18.4375 18.625 C18.95183594 19.19476563 19.46617187 19.76453125 19.99609375 20.3515625 C20.32738281 20.89554687 20.65867187 21.43953125 21 22 C20.67 22.99 20.34 23.98 20 25 C15.82595002 23.00461167 12.23714757 20.45671077 8.5 17.75 C7.83613281 17.28464844 7.17226563 16.81929688 6.48828125 16.33984375 C2.31634085 13.31706059 -0.57772082 10.58389315 -3 6 C-2.37975732 3.46264356 -1.85450566 1.85450566 0 0 Z " fill="#F3F1EF" transform="translate(476,258)"/>
<path d="M0 0 C0 5.94 0 11.88 0 18 C-5.5606985 16.8878603 -6.39754097 16.09749411 -9.70703125 11.98828125 C-11.60706543 9.06647643 -12.30570615 6.40203985 -13 3 C-11.58603098 2.49242138 -10.16868271 1.99425075 -8.75 1.5 C-7.96109375 1.2215625 -7.1721875 0.943125 -6.359375 0.65625 C-4 0 -4 0 0 0 Z " fill="#F1EFEE" transform="translate(440,495)"/>
<path d="M0 0 C2.4375 1.5625 2.4375 1.5625 4 4 C4 7.82389746 3.85254277 10.05611336 1.25 12.9375 C-1.49491218 14.23370853 -3.00074212 14.52487013 -6 14 C-8.3125 12.375 -8.3125 12.375 -10 10 C-10.61195145 6.3282913 -10.48706506 4.71186432 -8.375 1.625 C-5.28813568 -0.48706506 -3.6717087 -0.61195145 0 0 Z " fill="#F4F3F1" transform="translate(705,874)"/>
<path d="M0 0 C3.625 0.375 3.625 0.375 6.125 1.9375 C7.625 4.375 7.625 4.375 7.5625 8 C6.625 11.375 6.625 11.375 3.625 13.375 C-2.53077889 14.03454774 -2.53077889 14.03454774 -5.375 11.8125 C-6.79470326 8.35197331 -6.23801515 5.95983216 -5.375 2.375 C-3.375 0.375 -3.375 0.375 0 0 Z " fill="#F2F0EE" transform="translate(512.375,696.625)"/>
<path d="M0 0 C2.3125 1.625 2.3125 1.625 4 4 C4.61195145 7.6717087 4.48706506 9.28813568 2.375 12.375 C-0.69371124 14.47464453 -2.35392711 14.62060815 -6 14 C-8.81868001 11.65109999 -8.9884844 10.09376985 -9.4375 6.4375 C-9 3 -9 3 -7.3125 1.0625 C-4.53632314 -0.21304072 -3.0186385 -0.52826174 0 0 Z " fill="#F3F2F0" transform="translate(945,846)"/>
<path d="M0 0 C3.375 0.875 3.375 0.875 5.375 2.875 C5.81022403 6.7920163 5.92592928 9.02741649 3.75 12.375 C1.375 13.875 1.375 13.875 -1.6875 13.875 C-5.04758858 12.73114006 -6.04964938 12.02570125 -7.625 8.875 C-8.20496839 5.5608949 -7.92009872 4.32355005 -6.0625 1.5 C-3.625 -0.125 -3.625 -0.125 0 0 Z " fill="#F3F2F1" transform="translate(1069.625,629.125)"/>
<path d="M0 0 C3.44428265 1.44781793 5.36130962 3.27694609 7.75 6.125 C8.36359375 6.84945312 8.9771875 7.57390625 9.609375 8.3203125 C10.29773438 9.15175781 10.29773438 9.15175781 11 10 C9.60344703 13.49873271 8.28739516 14.70891831 4.875 16.25 C4.15054687 16.58515625 3.42609375 16.9203125 2.6796875 17.265625 C1.84824219 17.62914062 1.84824219 17.62914062 1 18 C-2.38558575 12.92162137 -2.29242232 7.9459205 -2 2 C-1.34 1.34 -0.68 0.68 0 0 Z " fill="#F2F0EF" transform="translate(426,546)"/>
<path d="M0 0 C3.5625 0.3125 3.5625 0.3125 5.5625 1.375 C7.17897822 4.50692656 6.34915296 6.98435286 5.5625 10.3125 C3.5625 12.3125 3.5625 12.3125 0.0625 12.625 C-1.67 12.4703125 -1.67 12.4703125 -3.4375 12.3125 C-5.88647847 8.63903229 -5.75287716 6.64893601 -5.4375 2.3125 C-3.4375 0.3125 -3.4375 0.3125 0 0 Z " fill="#F4F2F1" transform="translate(226.4375,525.6875)"/>
<path d="M0 0 C4.72502701 0.63242669 8.90570197 1.91813563 13.375 3.5625 C14.01566406 3.79646484 14.65632813 4.03042969 15.31640625 4.27148438 C16.8793161 4.84299619 18.43990727 5.42084229 20 6 C17.91896114 8.08103886 16.12810617 9.27498549 13.28515625 10.08984375 C7.98409539 9.88142597 3.27798797 5.88009042 -1 3 C-0.67 2.01 -0.34 1.02 0 0 Z " fill="#EFEDEA" transform="translate(454,885)"/>
<path d="M0 0 C0 0.99 0 1.98 0 3 C-4.95 4.32 -9.9 5.64 -15 7 C-15.33 5.68 -15.66 4.36 -16 3 C-17.98 3.99 -17.98 3.99 -20 5 C-20.66 4.34 -21.32 3.68 -22 3 C-14.49783264 -0.0517291 -8.05364285 -0.33608711 0 0 Z " fill="#F8F7F6" transform="translate(329,691)"/>
<path d="M0 0 C0.33 0 0.66 0 1 0 C2.06965872 6.32448699 3.13329546 12.64416673 4 19 C1.4859275 18.63632913 0.32778644 18.436008 -1.23046875 16.36328125 C-3.15680175 12.23542482 -4.54066798 8.59332023 -5 4 C-4.01 4 -3.02 4 -2 4 C-1.34 2.68 -0.68 1.36 0 0 Z " fill="#EAE8E5" transform="translate(273,724)"/>
<path d="M0 0 C1.1875 1.75 1.1875 1.75 2.1875 5.75 C-2.4325 6.08 -7.0525 6.41 -11.8125 6.75 C-9.8125 4.75 -9.8125 4.75 -6.8125 3.75 C-6.4825 3.09 -6.1525 2.43 -5.8125 1.75 C-12.7425 1.75 -19.6725 1.75 -26.8125 1.75 C-26.8125 1.42 -26.8125 1.09 -26.8125 0.75 C-23.77122183 0.41274935 -20.72955809 0.08007668 -17.6875 -0.25 C-16.8315625 -0.34539062 -15.975625 -0.44078125 -15.09375 -0.5390625 C-2.71468001 -1.87219311 -2.71468001 -1.87219311 0 0 Z " fill="#7F725E" transform="translate(415.8125,494.25)"/>
<path d="M0 0 C3.5814782 4.19897444 6.81831513 8.21416538 7.1875 13.875 C7.125625 14.57625 7.06375 15.2775 7 16 C4.59157615 15.60888843 3.28176826 15.2758363 1.515625 13.546875 C-0.47287988 10.72368905 -1.88795685 8.70427126 -2.4375 5.25 C-2 3 -2 3 0 0 Z " fill="#E6E4E1" transform="translate(713,327)"/>
<path d="M0 0 C-0.33 1.32 -0.66 2.64 -1 4 C-2.78910903 4.52955234 -4.58139148 5.0483937 -6.375 5.5625 C-7.87160156 5.99755859 -7.87160156 5.99755859 -9.3984375 6.44140625 C-12 7 -12 7 -14 6 C-14 4.68 -14 3.36 -14 2 C-4.58997722 -1.62870159 -4.58997722 -1.62870159 0 0 Z " fill="#ECEAE7" transform="translate(806,860)"/>
<path d="M0 0 C0 0.33 0 0.66 0 1 C-0.98395752 1.03758423 -0.98395752 1.03758423 -1.98779297 1.07592773 C-4.95040183 1.1917326 -7.91268031 1.31452886 -10.875 1.4375 C-11.90753906 1.47681641 -12.94007813 1.51613281 -14.00390625 1.55664062 C-14.99003906 1.59853516 -15.97617187 1.64042969 -16.9921875 1.68359375 C-17.90339355 1.72025146 -18.81459961 1.75690918 -19.75341797 1.79467773 C-22.03483481 1.86577065 -22.03483481 1.86577065 -24 3 C-26.37402501 3.07116382 -28.75000677 3.08409085 -31.125 3.0625 C-32.40632813 3.05347656 -33.68765625 3.04445313 -35.0078125 3.03515625 C-36.48894531 3.01775391 -36.48894531 3.01775391 -38 3 C-38 2.67 -38 2.34 -38 2 C-25.4698302 -0.79001793 -12.75700521 -0.1938528 0 0 Z " fill="#897D6B" transform="translate(495,482)"/>
<path d="M0 0 C2.97 0.99 5.94 1.98 9 3 C8.25 5.4375 8.25 5.4375 7 8 C5.0625 8.9375 5.0625 8.9375 3 9 C2.01 8.34 1.02 7.68 0 7 C0 6.34 0 5.68 0 5 C0.66 5 1.32 5 2 5 C1.34 3.35 0.68 1.7 0 0 Z " fill="#6D5C46" transform="translate(257,473)"/>
<path d="M0 0 C1.32 0.33 2.64 0.66 4 1 C4.33 3.31 4.66 5.62 5 8 C4.01 8.33 3.02 8.66 2 9 C1.34 9.99 0.68 10.98 0 12 C0 8.04 0 4.08 0 0 Z " fill="#EDEAE7" transform="translate(753,850)"/>
<path d="M0 0 C0.66 0.99 1.32 1.98 2 3 C1.50628906 3.55429687 1.01257813 4.10859375 0.50390625 4.6796875 C-0.45708984 5.76636719 -0.45708984 5.76636719 -1.4375 6.875 C-2.07558594 7.59429687 -2.71367188 8.31359375 -3.37109375 9.0546875 C-5.05014465 10.90750491 -5.05014465 10.90750491 -6 13 C-6.66 13 -7.32 13 -8 13 C-8 13.66 -8 14.32 -8 15 C-8.66 15 -9.32 15 -10 15 C-8.83529175 9.69410687 -6.42102301 7.08094432 -2.55859375 3.515625 C-0.89486104 2.0642683 -0.89486104 2.0642683 0 0 Z " fill="#6A5C46" transform="translate(756,467)"/>
<path d="M0 0 C0.66 0.66 1.32 1.32 2 2 C-6.72378764 11.11343572 -6.72378764 11.11343572 -11 13 C-11.66 12.67 -12.32 12.34 -13 12 C-12.31292969 11.38511719 -11.62585938 10.77023437 -10.91796875 10.13671875 C-10.01691406 9.32847656 -9.11585938 8.52023437 -8.1875 7.6875 C-7.29417969 6.88699219 -6.40085937 6.08648438 -5.48046875 5.26171875 C-3.60073214 3.54775419 -1.77407253 1.82122396 0 0 Z " fill="#685A44" transform="translate(696,740)"/>
<path d="M0 0 C0 0.99 0 1.98 0 3 C-1.86328125 4.5 -1.86328125 4.5 -4.3125 6 C-7.21447969 7.79446087 -9.68484583 9.48255081 -12 12 C-12.99 11.67 -13.98 11.34 -15 11 C-5.77448747 2.3690205 -5.77448747 2.3690205 0 0 Z " fill="#6C5D46" transform="translate(295,402)"/>
<path d="M0 0 C0.33 0.99 0.66 1.98 1 3 C-2.3 6.3 -5.6 9.6 -9 13 C-9.66 12.34 -10.32 11.68 -11 11 C-7.37 7.37 -3.74 3.74 0 0 Z " fill="#695A43" transform="translate(571,575)"/>
<path d="M0 0 C6.93 0.33 13.86 0.66 21 1 C21 1.33 21 1.66 21 2 C8.625 2.495 8.625 2.495 -4 3 C-2.68 2.67 -1.36 2.34 0 2 C0 1.34 0 0.68 0 0 Z " fill="#887B6A" transform="translate(355,366)"/>
<path d="M0 0 C2.09749995 2.35968744 2.96905704 3.54616994 3.1875 6.75 C3.125625 7.4925 3.06375 8.235 3 9 C1.68 9 0.36 9 -1 9 C-2.0326802 6.21176345 -2.04509293 5.1322726 -1.0625 2.25 C-0.711875 1.5075 -0.36125 0.765 0 0 Z " fill="#F1F0EE" transform="translate(713,327)"/>
<path d="M0 0 C0.98484375 0.02707031 1.9696875 0.05414062 2.984375 0.08203125 C3.73203125 0.11683594 4.4796875 0.15164063 5.25 0.1875 C5.25 0.5175 5.25 0.8475 5.25 1.1875 C3.12707704 1.71673572 1.00157949 2.23565377 -1.125 2.75 C-2.30835938 3.04003906 -3.49171875 3.33007812 -4.7109375 3.62890625 C-7.75 4.1875 -7.75 4.1875 -9.75 3.1875 C-6.47698081 0.21840402 -4.36934238 -0.15604794 0 0 Z " fill="#766852" transform="translate(1003.75,730.8125)"/>
<path d="M0 0 C0 0.33 0 0.66 0 1 C-2.06172613 1.33808686 -4.1244203 1.67027361 -6.1875 2 C-7.91033203 2.2784375 -7.91033203 2.2784375 -9.66796875 2.5625 C-12.50415393 2.93489477 -15.14719564 3.08596021 -18 3 C-17.01 2.67 -16.02 2.34 -15 2 C-15 1.34 -15 0.68 -15 0 C-13.88625 0.020625 -12.7725 0.04125 -11.625 0.0625 C-0.64788732 -0.12676056 -0.64788732 -0.12676056 0 0 Z " fill="#7A6B55" transform="translate(401,364)"/>
<path d="M0 0 C3.26008643 3.16952847 6.22237877 6.39937989 9 10 C5.51620548 10 5.17377657 9.60544626 2.8125 7.25 C2.28269531 6.73953125 1.75289063 6.2290625 1.20703125 5.703125 C0 4 0 4 0 0 Z " fill="#6D5E48" transform="translate(390,917)"/>
<path d="M0 0 C0.33 0 0.66 0 1 0 C1 4.29 1 8.58 1 13 C-0.65 12.67 -2.3 12.34 -4 12 C-4.33 10.68 -4.66 9.36 -5 8 C-3.02 8.99 -3.02 8.99 -1 10 C-0.67 6.7 -0.34 3.4 0 0 Z " fill="#DCD9D5" transform="translate(318,511)"/>
<path d="M0 0 C0.66 0.99 1.32 1.98 2 3 C1.38125 3.2475 0.7625 3.495 0.125 3.75 C-2.13746494 4.82143729 -2.13746494 4.82143729 -3 7 C-4.24508396 9.49016793 -5.46716796 9.98686718 -8 11 C-6.63629701 8.00779732 -5.05091917 5.70973471 -2.875 3.25 C-2.33617187 2.63640625 -1.79734375 2.0228125 -1.2421875 1.390625 C-0.62730469 0.70226562 -0.62730469 0.70226562 0 0 Z " fill="#6C5D47" transform="translate(770,431)"/>
<path d="M0 0 C0.185625 0.9590625 0.185625 0.9590625 0.375 1.9375 C0.684375 2.9584375 0.684375 2.9584375 1 4 C1.66 4.33 2.32 4.66 3 5 C2.01 5.495 2.01 5.495 1 6 C1 7.98 1 9.96 1 12 C0.34 12 -0.32 12 -1 12 C-1.33 13.98 -1.66 15.96 -2 18 C-3.51553092 14.02549507 -2.49888623 10.79518851 -1.5625 6.75 C-1.27503906 5.48671875 -0.98757813 4.2234375 -0.69140625 2.921875 C-0.46324219 1.95765625 -0.23507812 0.9934375 0 0 Z " fill="#847764" transform="translate(893,695)"/>
<path d="M0 0 C2.97 0 5.94 0 9 0 C8.01 1.485 8.01 1.485 7 3 C8.65 3.33 10.3 3.66 12 4 C12 4.33 12 4.66 12 5 C9.03 5 6.06 5 3 5 C3.33 4.01 3.66 3.02 4 2 C2.68 1.34 1.36 0.68 0 0 Z " fill="#6F5F47" transform="translate(383,496)"/>
<path d="M0 0 C2.31 1.98 4.62 3.96 7 6 C6.67 6.99 6.34 7.98 6 9 C4.0625 8.25 4.0625 8.25 2 7 C1.3125 5.0625 1.3125 5.0625 1 3 C0.67 2.01 0.34 1.02 0 0 Z " fill="#EEEBE9" transform="translate(490,274)"/>
<path d="M0 0 C-0.33 1.32 -0.66 2.64 -1 4 C-4.26954202 3.43628586 -5.82575883 2.50037734 -8 0 C-4.71023192 -1.09658936 -3.28696233 -0.79953138 0 0 Z " fill="#DCD7D1" transform="translate(806,860)"/>
<path d="M0 0 C4.29 0 8.58 0 13 0 C13 0.99 13 1.98 13 3 C11.68 3.33 10.36 3.66 9 4 C8.67 3.34 8.34 2.68 8 2 C6.10466658 1.53476937 6.10466658 1.53476937 3.9375 1.375 C2.638125 1.25125 1.33875 1.1275 0 1 C0 0.67 0 0.34 0 0 Z " fill="#E9E5E1" transform="translate(316,691)"/>
<path d="M0 0 C0.33 0 0.66 0 1 0 C1.33 3.63 1.66 7.26 2 11 C-0.475 12.485 -0.475 12.485 -3 14 C-3.99 13.34 -4.98 12.68 -6 12 C-4.35 11.34 -2.7 10.68 -1 10 C-0.67 6.7 -0.34 3.4 0 0 Z " fill="#867A66" transform="translate(936,597)"/>
<path d="M0 0 C-1.305239 2.61047801 -2.35826574 2.68066423 -5.0625 3.625 C-6.16271484 4.01558594 -6.16271484 4.01558594 -7.28515625 4.4140625 C-7.85105469 4.60742188 -8.41695312 4.80078125 -9 5 C-9.66 4.34 -10.32 3.68 -11 3 C-7.16674383 0.29417212 -4.67461851 -0.32613618 0 0 Z " fill="#75654E" transform="translate(986,690)"/>
<path d="M0 0 C0.66 0.33 1.32 0.66 2 1 C-0.31 3.64 -2.62 6.28 -5 9 C-5.66 8.34 -6.32 7.68 -7 7 C-4.69 4.69 -2.38 2.38 0 0 Z " fill="#6A5943" transform="translate(310,273)"/>
<path d="M0 0 C0.99 0.33 1.98 0.66 3 1 C0.69 3.31 -1.62 5.62 -4 8 C-4.66 7.34 -5.32 6.68 -6 6 C-4.02 4.02 -2.04 2.04 0 0 Z " fill="#695A42" transform="translate(736,768)"/>
<path d="M0 0 C0.66 0.66 1.32 1.32 2 2 C1.625 4.625 1.625 4.625 1 7 C0.34 7 -0.32 7 -1 7 C-1 7.66 -1 8.32 -1 9 C-1.66 9 -2.32 9 -3 9 C-2.01 6.03 -1.02 3.06 0 0 Z " fill="#73644E" transform="translate(772,709)"/>
<path d="M0 0 C0.99352844 3.09097736 0.96367132 4.91625179 0 8 C-0.185625 8.7425 -0.37125 9.485 -0.5625 10.25 C-0.706875 10.8275 -0.85125 11.405 -1 12 C-1.66 12 -2.32 12 -3 12 C-2.49202991 7.6822542 -1.80317221 3.96697886 0 0 Z " fill="#736450" transform="translate(593,430)"/>
<path d="M0 0 C-9.41002278 4.59225513 -9.41002278 4.59225513 -14 4 C-9.68030697 0.34487513 -5.55645743 -1.67651733 0 0 Z " fill="#7B6F5B" transform="translate(332,265)"/>
<path d="M0 0 C0.78375 0.04125 1.5675 0.0825 2.375 0.125 C1.1684375 1.2078125 1.1684375 1.2078125 -0.0625 2.3125 C-2.64792072 5.15015689 -3.30542813 6.39666147 -3.625 10.125 C-3.955 10.125 -4.285 10.125 -4.625 10.125 C-4.8203125 4.0703125 -4.8203125 4.0703125 -4.625 2.125 C-2.625 0.125 -2.625 0.125 0 0 Z " fill="#80725F" transform="translate(712.625,264.875)"/>
<path d="M0 0 C0.33 0.99 0.66 1.98 1 3 C0.00390625 4.82421875 0.00390625 4.82421875 -1.4375 6.6875 C-1.91058594 7.31011719 -2.38367188 7.93273437 -2.87109375 8.57421875 C-3.24363281 9.04472656 -3.61617187 9.51523437 -4 10 C-4.99 9.67 -5.98 9.34 -7 9 C-6.57847656 8.51789062 -6.15695312 8.03578125 -5.72265625 7.5390625 C-5.17480469 6.90742187 -4.62695312 6.27578125 -4.0625 5.625 C-3.51722656 4.99851562 -2.97195313 4.37203125 -2.41015625 3.7265625 C-0.93041376 2.04367666 -0.93041376 2.04367666 0 0 Z " fill="#6F614B" transform="translate(824,778)"/>
<path d="M0 0 C0.66 0.33 1.32 0.66 2 1 C1.01 2.485 1.01 2.485 0 4 C-0.66 4 -1.32 4 -2 4 C-2.66 5.32 -3.32 6.64 -4 8 C-4.99 8 -5.98 8 -7 8 C-6.02133662 6.85373678 -5.04205413 5.70800212 -4.0625 4.5625 C-3.51722656 3.92441406 -2.97195313 3.28632812 -2.41015625 2.62890625 C-1.63204305 1.73008851 -0.84063472 0.84063472 0 0 Z " fill="#F4F2F0" transform="translate(717,770)"/>
<path d="M0 0 C0.66 0.66 1.32 1.32 2 2 C0.68 3.65 -0.64 5.3 -2 7 C-2.99 6.67 -3.98 6.34 -5 6 C-3.35 4.02 -1.7 2.04 0 0 Z " fill="#695A44" transform="translate(289,298)"/>
<path d="M0 0 C0.66 0.99 1.32 1.98 2 3 C0.68 5.31 -0.64 7.62 -2 10 C-2.66 10 -3.32 10 -4 10 C-2.8905928 6.51329166 -1.73662334 3.22515763 0 0 Z " fill="#756854" transform="translate(724,698)"/>
<path d="M0 0 C-1 3 -1 3 -3 4 C-4.99960012 4.039992 -7.00047242 4.04346799 -9 4 C-3.7826087 0 -3.7826087 0 0 0 Z " fill="#71634D" transform="translate(1066,544)"/>
<path d="M0 0 C-4.8341517 2.68563983 -8.61108031 3.38572221 -14 2 C-14 1.67 -14 1.34 -14 1 C-12.41913952 0.63495397 -10.83516093 0.28339494 -9.25 -0.0625 C-8.36828125 -0.25972656 -7.4865625 -0.45695312 -6.578125 -0.66015625 C-4.01320972 -0.99825872 -2.42908361 -0.81158635 0 0 Z " fill="#8C8271" transform="translate(456,486)"/>
<path d="M0 0 C0.33 0 0.66 0 1 0 C2.10228696 4.40914783 2.07654536 8.48382401 2 13 C-0.49497561 8.17638048 -1.07844633 5.39223163 0 0 Z " fill="#887B6A" transform="translate(762,615)"/>
<path d="M0 0 C0.66 0 1.32 0 2 0 C2.99 2.97 3.98 5.94 5 9 C1.7457985 6.16569547 0.4793247 4.31392226 0 0 Z " fill="#746651" transform="translate(752,589)"/>
<path d="M0 0 C2.13586678 3.20380017 2.23132175 4.01939967 2.125 7.6875 C2.10695313 8.49574219 2.08890625 9.30398438 2.0703125 10.13671875 C2.04710937 10.75160156 2.02390625 11.36648438 2 12 C0.4375 10.5 0.4375 10.5 -1 8 C-0.96823234 5.22562457 -0.50364148 2.74713533 0 0 Z " fill="#7B6B55" transform="translate(290,568)"/>
<path d="M0 0 C0.99 0.33 1.98 0.66 3 1 C2.01 2.98 1.02 4.96 0 7 C-0.66 7 -1.32 7 -2 7 C-1.125 2.25 -1.125 2.25 0 0 Z " fill="#6B5C45" transform="translate(179,416)"/>
<path d="M0 0 C0.33 1.32 0.66 2.64 1 4 C-1.4375 6.75 -1.4375 6.75 -4 9 C-4.66 8.67 -5.32 8.34 -6 8 C-4.02 5.36 -2.04 2.72 0 0 Z " fill="#71624C" transform="translate(867,763)"/>
<path d="M0 0 C0.66 0.99 1.32 1.98 2 3 C0.35 4.65 -1.3 6.3 -3 8 C-3.66 7.67 -4.32 7.34 -5 7 C-3.35 4.69 -1.7 2.38 0 0 Z " fill="#6F624D" transform="translate(750,750)"/>
<path d="M0 0 C1.8125 2 1.8125 2 3 4 C2.01 4.33 1.02 4.66 0 5 C-0.33 3.68 -0.66 2.36 -1 1 C-2.98 1.99 -2.98 1.99 -5 3 C-5.66 2.34 -6.32 1.68 -7 1 C-4.4254716 -0.2872642 -2.85291355 -0.34791629 0 0 Z " fill="#E7E4E0" transform="translate(314,693)"/>
<path d="M0 0 C0.66 0.66 1.32 1.32 2 2 C-3.5 5.125 -3.5 5.125 -8 4 C-5.36 2.68 -2.72 1.36 0 0 Z " fill="#72644D" transform="translate(898,568)"/>
<path d="M0 0 C0 0.33 0 0.66 0 1 C-5.16044765 2.512545 -8.65998179 3.33500455 -14 2 C-14 1.67 -14 1.34 -14 1 C-9.32798795 -0.20568053 -4.78503708 -0.09382426 0 0 Z " fill="#C7BFB7" transform="translate(526,512)"/>
<path d="M0 0 C-0.33 0.99 -0.66 1.98 -1 3 C-3.3125 3.625 -3.3125 3.625 -6 4 C-6.99 3.34 -7.98 2.68 -9 2 C-3.375 0 -3.375 0 0 0 Z " fill="#6E5F48" transform="translate(526,354)"/>
<path d="M0 0 C1.2065625 0.0309375 1.2065625 0.0309375 2.4375 0.0625 C2.4375 1.0525 2.4375 2.0425 2.4375 3.0625 C0.7875 3.3925 -0.8625 3.7225 -2.5625 4.0625 C-2.8925 3.0725 -3.2225 2.0825 -3.5625 1.0625 C-2.5625 0.0625 -2.5625 0.0625 0 0 Z " fill="#F9F9F8" transform="translate(799.5625,860.9375)"/>
<path d="M0 0 C0.99 0.33 1.98 0.66 3 1 C0.8125 3.0625 0.8125 3.0625 -2 5 C-4.8125 4.75 -4.8125 4.75 -7 4 C-7 3.67 -7 3.34 -7 3 C-5.5459375 2.5359375 -5.5459375 2.5359375 -4.0625 2.0625 C-1.15934208 1.30476658 -1.15934208 1.30476658 0 0 Z " fill="#756955" transform="translate(992,737)"/>
<path d="M0 0 C0.99 0 1.98 0 3 0 C2.67 1.65 2.34 3.3 2 5 C1.01 5.33 0.02 5.66 -1 6 C-0.67 4.02 -0.34 2.04 0 0 Z " fill="#72634E" transform="translate(164,577)"/>
<path d="M0 0 C0.66 0.66 1.32 1.32 2 2 C0.02 3.32 -1.96 4.64 -4 6 C-4.66 5.67 -5.32 5.34 -6 5 C-4.02 3.35 -2.04 1.7 0 0 Z " fill="#72634D" transform="translate(907,548)"/>
<path d="M0 0 C0.66 0.99 1.32 1.98 2 3 C1.01 4.32 0.02 5.64 -1 7 C-1.99 6.67 -2.98 6.34 -4 6 C-2.68 4.02 -1.36 2.04 0 0 Z " fill="#6A5B45" transform="translate(707,414)"/>
<path d="M0 0 C2.31 1.98 4.62 3.96 7 6 C6.34 6.66 5.68 7.32 5 8 C0 2.25 0 2.25 0 0 Z " fill="#675840" transform="translate(893,347)"/>
<path d="M0 0 C2 1 2 1 2.6875 2.9375 C3 5 3 5 2 7 C2.66 7.33 3.32 7.66 4 8 C3.34 8.66 2.68 9.32 2 10 C0.39644899 6.49223216 -0.22036864 3.85645121 0 0 Z " fill="#756854" transform="translate(473,239)"/>
</svg>
